
<svg width="566px" height="172px" viewBox="0 0 566 172" version="1.1" xmlns="http://www.w3.org/2000/svg" xmlns:xlink="http://www.w3.org/1999/xlink">
    <!-- Generator: Sketch 50.2 (55047) - http://www.bohemiancoding.com/sketch -->
    <desc>Created with Sketch.</desc>
    <defs>
        <polygon id="oval-3-path-1" points="29.3859028 76.805347 0.120328498 76.805347 0.120328498 0.102993837 29.3859028 0.102993837"></polygon>
    </defs>
    <g id="Page-1" stroke="none" stroke-width="1" fill="none" fill-rule="evenodd">
        <g id="1366х900-business" transform="translate(-774.000000, -1987.000000)">
            <g id="Page-1" transform="translate(1057.903373, 2072.903373) rotate(-45.000000) translate(-1057.903373, -2072.903373) translate(916.403373, 1812.903373)">
                <path d="M81.3951631,118.901693 C77.0590642,111.589294 72.8402285,104.540061 68.7526069,97.7762779 C63.5183699,95.6529127 55.4865951,109.747134 52.8574109,125.681393 C52.759943,125.650619 52.6605897,125.61401 52.5601054,125.574216 C56.5843822,133.616688 60.7909637,141.93612 65.1634482,150.496964 C67.9034856,133.447434 75.7561608,121.935526 81.3951631,118.901693" id="Fill-1" fill="#FF0619"></path>
                <path d="M254.040509,486.779834 C252.809284,473.884343 252.895378,454.018476 253.191118,442.782445 C246.993249,429.363788 239.932759,414.52985 232.140465,398.557476 C232.222087,429.575839 234.202446,448.143697 236.832986,459.883616 C243.122353,470.003166 248.886582,479.014801 254.040509,486.779834" id="Fill-3" fill="#FF0619"></path>
                <path d="M195.893773,391.409371 C200.669463,399.642002 205.313126,407.569269 209.807444,415.164038 C208.49574,402.507863 210.97483,373.035839 213.525428,361.543138 C208.70095,352.003925 203.685228,342.184351 198.500422,332.13123 C198.274356,333.437811 195.253563,350.98409 194.405723,360.892508 C192.799612,379.664504 194.8694,388.403595 195.893773,391.409371" id="Fill-5" fill="#FF0619"></path>
                <path d="M43.8000878,56.2822995 C41.4493827,52.5524622 39.1745251,48.9808052 36.9815375,45.5780525 C27.7577021,36.0298621 20.577418,51.8805982 19.3450388,54.850634 C22.6405428,62.2545433 26.3156603,70.2895652 30.3335027,78.8811671 C30.2875802,78.5117224 30.2442926,78.1428138 30.2047691,77.7739052 C31.8182675,67.990321 39.4617289,58.1885059 43.8000878,56.2822995" id="Fill-7" fill="#FF0619"></path>
                <path d="M15.3300307,14.2679189 C6.35244776,2.42255958 0.947731177,-2.46163077 0.11299482,1.18479613 C-0.682411353,4.65906282 2.74661893,15.535692 9.60617779,32.1752129 C9.49586598,22.9227864 12.7640171,15.8815918 15.3300307,14.2679189" id="Fill-9" fill="#FF0619"></path>
                <path d="M164.250329,267.033864 C159.276562,257.690423 154.210488,248.242608 149.066092,238.719322 C141.466887,243.761439 136.909527,269.265349 135.415271,283.727448 C135.454618,283.799708 135.493593,283.871968 135.532567,283.944227 C142.338117,296.51473 149.049122,308.788165 155.632949,320.714219 C153.704011,302.120473 160.239912,275.203486 164.250329,267.033864" id="Fill-11" fill="#FF0619"></path>
                <path d="M117.530236,182.293953 C115.528992,178.705974 113.54137,175.153302 111.568675,171.638612 C97.302653,168.256058 90.4226663,188.157119 88.330177,195.812402 C93.6440622,206.099691 99.1232716,216.611127 104.74616,227.302311 C102.825526,210.063747 112.828572,189.816031 117.530236,182.293953" id="Fill-13" fill="#FF0619"></path>
                <path d="M36.8650739,45.8406417 C28.3483942,32.7799162 21.0549738,22.2047261 15.2476931,14.5307413 C12.6676628,16.156307 9.38165977,23.2465515 9.49276245,32.5641284 C12.2140249,39.1761406 15.4723465,46.6915983 19.2189549,55.009235 C20.4520064,52.0725069 27.6362072,36.4000604 36.8650739,45.8406417" id="Fill-15" fill="#0512AF"></path>
                <path d="M68.9851383,98.3816991 C59.900678,83.090186 51.4687518,69.2415826 43.8437247,57.0850552 C39.5201938,58.9935408 31.9030443,68.8103743 30.2950607,78.608413 C30.3344491,78.9773296 30.3775888,79.3467832 30.4231667,79.7167738 C37.0242836,93.9004631 44.5575921,109.603853 52.875292,126.516021 C52.9752634,126.556296 53.073922,126.593349 53.17108,126.625031 C55.7868433,110.497415 63.7776197,96.232639 68.9851383,98.3816991" id="Fill-17" fill="#0512AF"></path>
                <path d="M111.690224,172.00972 C101.146057,153.318078 91.0222251,135.688054 81.4697714,119.359661 C75.8644933,122.416223 68.0587815,134.014375 65.335131,151.192169 C72.5754614,165.560898 80.2732316,180.604765 88.3516084,196.165008 C90.4532831,188.515584 97.3626677,168.629755 111.690224,172.00972" id="Fill-19" fill="#0512AF"></path>
                <path d="M148.920298,238.607926 C148.120523,237.138836 147.319813,235.669214 146.516301,234.196399 C136.586454,215.997988 126.857251,198.422649 117.431817,181.634266 C112.724518,189.11593 102.70948,209.25486 104.632417,226.401337 C114.440084,244.926449 124.682481,263.990032 135.244527,283.349456 C136.741514,268.973019 141.307204,243.620177 148.920298,238.607926" id="Fill-21" fill="#0512AF"></path>
                <path d="M155.840647,321.115278 C169.891611,346.238943 183.364454,369.803879 195.932951,391.292105 C194.900405,388.287391 192.814102,379.551384 194.433028,360.786014 C195.287633,350.881093 198.332528,333.341008 198.560398,332.034888 C187.864224,311.466689 176.45347,289.919432 164.514524,267.780804 C160.477814,275.897787 153.899062,302.641338 155.840647,321.115278" id="Fill-23" fill="#0512AF"></path>
                <path d="M209.876799,414.738472 C219.639535,431.047319 228.703119,445.816072 236.885475,458.756262 C234.230315,447.109134 232.23142,428.688037 232.149035,397.914844 C226.35907,386.249123 220.169589,373.972996 213.632132,361.192713 C211.055972,372.66984 208.551664,402.100033 209.876799,414.738472" id="Fill-25" fill="#0512AF"></path>
                <g id="Group-29" transform="translate(252.945507, 442.149700)">
                    <mask id="oval-3-mask-2" fill="white">
                        <use xlink:href="#oval-3-path-1"></use>
                    </mask>
                    <g id="Clip-28"></g>
                    <path d="M1.16020403,43.9268447 C17.7869946,68.7765747 28.0937859,80.8291471 29.2730201,75.6047834 C30.6315159,69.5878312 19.6550198,41.6557533 0.307308208,0.102993837 C0.0103477707,11.2947063 -0.0761019595,31.0822172 1.16020403,43.9268447" id="Fill-27" fill="#0512AF" mask="url(#oval-3-mask-2)"></path>
                </g>
            </g>
        </g>
    </g>
</svg>
