<?xml version="1.0" encoding="UTF-8"?>
<svg width="32px" height="19px" viewBox="0 0 32 19" version="1.1" xmlns="http://www.w3.org/2000/svg" xmlns:xlink="http://www.w3.org/1999/xlink">
    <!-- Generator: Sketch 48.2 (47327) - http://www.bohemiancoding.com/sketch -->
    <title>Fill 1</title>
    <desc>Created with Sketch.</desc>
    <defs></defs>
    <g id="1366x900-ONE-EXP-light" stroke="none" stroke-width="1" fill="none" fill-rule="evenodd" transform="translate(-75.000000, -2786.000000)">
        <g id="Футер" transform="translate(75.000000, 2644.000000)" fill="#000000">
            <g id="Group-2" transform="translate(0.000000, 141.000000)">
                <g id="Page-1" transform="translate(0.000000, 1.000000)">
                    <path d="M31.7651437,1.44734852 C31.3391981,1.12757612 29.8086718,1.12757612 28.2936868,1.12757612 C26.7464681,1.15967007 25.1998249,1.15967007 24.8366199,1.30380106 C24.5062243,1.43159331 23.764273,3.25569647 22.8018661,5.12706526 C21.6961343,7.24001393 20.3555567,9.28760765 19.5025143,9.25434665 C18.3823924,9.25434665 18.6511986,5.7829488 18.7300561,3.20784732 C18.7450218,1.52729162 18.4767911,0.982861603 18.2402186,0.839897664 C17.6559824,0.423259899 16.0465986,0.0247114483 16.0465986,0.0247114483 C16.0465986,0.0247114483 11.2167205,-0.344077162 10.5386611,1.76770445 C11.4694098,1.89608023 13.0477111,1.6066512 12.4323923,8.15031493 C12.3851929,8.47125438 11.6904411,11.1589764 9.44904608,7.52652533 C8.8809267,6.61505728 6.73565727,1.15967007 5.97758916,1.12757612 C3.49904605,1.07914344 1.037771,0.96768992 0.186455338,1.44734852 C-0.619387754,1.92759065 1.25880225,5.67091175 4.43152163,10.6956566 C7.00273669,14.822938 9.73396918,18.0229961 14.4682973,18.8224271 C15.3679636,18.9192925 17.6726748,19.0138237 18.4146261,18.6631244 C18.9027368,18.4227116 18.287418,14.8713706 19.9768105,14.5183372 C20.7187617,14.3747898 23.6054068,18.231315 24.6944462,18.6631244 C25.3586911,18.9350477 26.8103599,19.0465012 28.2936868,18.9823133 C29.9036462,18.9350477 31.73291,19.142783 31.9067419,18.0229961 C32.3021806,15.5751033 27.0313912,12.3744617 26.8886418,10.8707145 C26.7625849,9.78302146 28.8146068,7.78327689 29.8558712,6.24743572 C31.1492494,4.39123862 32.5704112,2.15166475 31.7651437,1.44734852" id="Fill-1"></path>
                </g>
            </g>
        </g>
    </g>
</svg>