<?xml version="1.0" encoding="UTF-8"?>
<svg width="22px" height="22px" viewBox="0 0 22 22" version="1.1" xmlns="http://www.w3.org/2000/svg" xmlns:xlink="http://www.w3.org/1999/xlink">
    <!-- Generator: Sketch 48.2 (47327) - http://www.bohemiancoding.com/sketch -->
    <title>Page 1</title>
    <desc>Created with Sketch.</desc>
    <defs>
        <polygon id="path-1" points="0 0.15224 21.84798 0.15224 21.84798 21.999956 0 21.999956"></polygon>
    </defs>
    <g id="1366x900-ONE-EXP-light" stroke="none" stroke-width="1" fill="none" fill-rule="evenodd" transform="translate(-189.000000, -2785.000000)">
        <g id="Футер" transform="translate(75.000000, 2644.000000)">
            <g id="Group-2" transform="translate(0.000000, 141.000000)">
                <g id="Page-1" transform="translate(114.000000, 0.000000)">
                    <g id="Group-3">
                        <mask id="mask-2" fill="white">
                            <use xlink:href="#path-1"></use>
                        </mask>
                        <g id="Clip-2"></g>
                        <path d="M16.68502,0.152196 L5.16318,0.152196 C2.32826,0.152196 -0.00022,2.468356 -0.00022,5.315596 L-0.00022,16.836996 C-0.00022,19.671476 2.32826,21.999956 5.16318,21.999956 L16.68502,21.999956 C19.53226,21.999956 21.84798,19.671476 21.84798,16.836996 L21.84798,5.315596 C21.84798,2.468356 19.53226,0.152196 16.68502,0.152196" id="Fill-1" fill="#000000" mask="url(#mask-2)"></path>
                    </g>
                    <path d="M18,3 C17.4462553,3 17,3.44703143 17,4 C17,4.55335662 17.4462553,5 18,5 C18.5529686,5 19,4.55335662 19,4 C19,3.44703143 18.5529686,3 18,3" id="Fill-4" fill="#FFFFFF"></path>
                    <path d="M10.9997814,4 C7.14054645,4 4,7.14010929 4,10.9997814 C4,14.871694 7.14054645,18 10.9997814,18 C14.871694,18 18,14.871694 18,10.9997814 C18,7.14010929 14.871694,4 10.9997814,4 M10.9997814,5.74863388 C13.8955191,5.74863388 16.2513661,8.10448087 16.2513661,10.9997814 C16.2513661,13.8955191 13.8955191,16.2513661 10.9997814,16.2513661 C8.10448087,16.2513661 5.74863388,13.8955191 5.74863388,10.9997814 C5.74863388,8.10448087 8.10448087,5.74863388 10.9997814,5.74863388" id="Fill-6" fill="#FFFFFF"></path>
                </g>
            </g>
        </g>
    </g>
</svg>