<?xml version="1.0" encoding="UTF-8"?>
<svg width="25px" height="22px" viewBox="0 0 25 22" version="1.1" xmlns="http://www.w3.org/2000/svg" xmlns:xlink="http://www.w3.org/1999/xlink">
    <!-- Generator: Sketch 48.2 (47327) - http://www.bohemiancoding.com/sketch -->
    <title>Page 1</title>
    <desc>Created with Sketch.</desc>
    <defs>
        <polygon id="path-1" points="0 -5.86267618e-05 24.8002811 -5.86267618e-05 24.8002811 21.6393573 0 21.6393573"></polygon>
    </defs>
    <g id="1366x900-ONE-EXP-light" stroke="none" stroke-width="1" fill="none" fill-rule="evenodd" transform="translate(-246.000000, -2785.000000)">
        <g id="Футер" transform="translate(75.000000, 2644.000000)">
            <g id="Group-2" transform="translate(0.000000, 141.000000)">
                <g id="Page-1" transform="translate(171.000000, 0.000000)">
                    <mask id="mask-2" fill="white">
                        <use xlink:href="#path-1"></use>
                    </mask>
                    <g id="Clip-2"></g>
                    <path d="M24.6774489,5.19043556 C23.2836267,12.9921244 15.5489156,19.6136356 13.2032267,21.1287022 C10.8971378,22.6295911 8.75287111,20.4985244 7.98873778,18.90328 C7.10433778,17.0934133 4.47704889,7.21443556 3.76669333,6.38332444 C3.09593778,5.56590222 1.00544889,7.21443556 1.00544889,7.21443556 L-0.000195555556,5.88759111 C-0.000195555556,5.88759111 4.20864889,0.847635556 7.43922667,0.217457778 C10.8306489,-0.439608889 10.8306489,5.43145778 11.6343822,8.72901333 C12.4390933,11.8926133 12.9617156,13.6887911 13.6588711,13.6887911 C14.3428267,13.6887911 15.6696711,11.9331911 17.11776,9.22523556 C18.5648711,6.51776889 17.0639822,4.11830222 14.2220711,5.83381333 C15.3611822,-0.975431111 26.05856,-2.61125333 24.6774489,5.19043556" id="Fill-1" fill="#000000" mask="url(#mask-2)"></path>
                </g>
            </g>
        </g>
    </g>
</svg>