<?xml version="1.0" encoding="UTF-8"?>
<svg width="30px" height="22px" viewBox="0 0 30 22" version="1.1" xmlns="http://www.w3.org/2000/svg" xmlns:xlink="http://www.w3.org/1999/xlink">
    <!-- Generator: Sketch 48.2 (47327) - http://www.bohemiancoding.com/sketch -->
    <title>Page 1</title>
    <desc>Created with Sketch.</desc>
    <defs>
        <polygon id="path-1" points="0 -9.36170213e-05 29.5052766 -9.36170213e-05 29.5052766 21.6371404 0 21.6371404"></polygon>
    </defs>
    <g id="1366x900-ONE-EXP-light" stroke="none" stroke-width="1" fill="none" fill-rule="evenodd" transform="translate(-429.000000, -2785.000000)">
        <g id="Футер" transform="translate(75.000000, 2644.000000)">
            <g id="Group-2" transform="translate(0.000000, 141.000000)">
                <g id="Page-1" transform="translate(354.000000, 0.000000)">
                    <mask id="mask-2" fill="white">
                        <use xlink:href="#path-1"></use>
                    </mask>
                    <g id="Clip-2"></g>
                    <path d="M19.6866766,10.4910979 L11.7062936,14.7923319 L11.7062936,8.17173617 L11.7062936,6.15662979 L15.3208468,8.12399149 L19.6866766,10.4910979 Z M29.2173574,4.6695234 C29.2173574,4.6695234 28.9145064,2.54301277 28.0340383,1.61526809 C26.9153149,0.400119149 25.6514851,0.38373617 25.0921234,0.303225532 C20.9659532,-9.36170213e-05 14.7774,-9.36170213e-05 14.7774,-9.36170213e-05 L14.744166,-9.36170213e-05 C14.744166,-9.36170213e-05 8.57246383,-9.36170213e-05 4.44488936,0.303225532 C3.85463404,0.38373617 2.60718723,0.400119149 1.48752766,1.61526809 C0.60752766,2.54301277 0.304676596,4.6695234 0.304676596,4.6695234 C0.304676596,4.6695234 -4.68085106e-05,7.16488511 -4.68085106e-05,9.62701277 L-4.68085106e-05,9.94718298 L-4.68085106e-05,11.9777362 C-4.68085106e-05,14.4726298 0.304676596,16.9361617 0.304676596,16.9361617 C0.304676596,16.9361617 0.60752766,19.0626723 1.48752766,20.0063319 C2.60718723,21.2373957 4.07884681,21.1896511 4.75054894,21.3174383 C7.10080426,21.557566 14.7774,21.6371404 14.7774,21.6371404 C14.7774,21.6371404 20.9659532,21.6053106 25.0921234,21.3174383 C25.6514851,21.2373957 26.9153149,21.2373957 28.0340383,20.0063319 C28.9145064,19.0626723 29.2173574,16.9361617 29.2173574,16.9361617 C29.2173574,16.9361617 29.5056979,14.4726298 29.5056979,11.9777362 L29.5056979,10.0749702 L29.5056979,9.62701277 C29.5056979,7.16488511 29.2173574,4.6695234 29.2173574,4.6695234 Z" id="Fill-1" fill="#000000" mask="url(#mask-2)"></path>
                </g>
            </g>
        </g>
    </g>
</svg>