<?xml version="1.0" encoding="UTF-8"?>
<svg width="19px" height="26px" viewBox="0 0 19 26" version="1.1" xmlns="http://www.w3.org/2000/svg" xmlns:xlink="http://www.w3.org/1999/xlink">
    <!-- Generator: Sketch 48.2 (47327) - http://www.bohemiancoding.com/sketch -->
    <title>Page 1 Copy 3</title>
    <desc>Created with Sketch.</desc>
    <defs>
        <polygon id="path-1" points="0.000541666667 0.000433333333 18.5130833 0.000433333333 18.5130833 25.5649333 0.000541666667 25.5649333"></polygon>
    </defs>
    <g id="1366x900-copy-2" stroke="none" stroke-width="1" fill="none" fill-rule="evenodd" transform="translate(-272.000000, -169.000000)">
        <g id="Page-1-Copy-3" transform="translate(272.000000, 169.000000)">
            <mask id="mask-2" fill="white">
                <use xlink:href="#path-1"></use>
            </mask>
            <g id="Clip-2"></g>
            <path d="M9.25654167,12.1080917 C7.22745833,12.1080917 5.58295833,10.4635917 5.58295833,8.43450833 C5.58295833,6.40650833 7.22745833,4.76200833 9.25654167,4.76200833 C11.285625,4.76200833 12.930125,6.40650833 12.930125,8.43450833 C12.930125,10.4635917 11.285625,12.1080917 9.25654167,12.1080917 M9.25654167,-0.000325 C4.14429167,-0.000325 0.000541666667,4.01559167 0.000541666667,8.96859167 C0.000541666667,16.707925 9.25654167,25.5652583 9.25654167,25.5652583 C9.25654167,25.5652583 18.513625,16.707925 18.513625,8.96859167 C18.513625,4.01559167 14.3687917,-0.000325 9.25654167,-0.000325" id="Fill-1" fill="#747474" mask="url(#mask-2)"></path>
        </g>
    </g>
</svg>