<?xml version="1.0" encoding="UTF-8"?>
<svg width="26px" height="22px" viewBox="0 0 26 22" version="1.1" xmlns="http://www.w3.org/2000/svg" xmlns:xlink="http://www.w3.org/1999/xlink">
    <!-- Generator: Sketch 48.2 (47327) - http://www.bohemiancoding.com/sketch -->
    <title>Page 1 Copy 3</title>
    <desc>Created with Sketch.</desc>
    <defs>
        <polygon id="path-1" points="1.12757251e-20 0 1.12757251e-20 22 26 22 26 0"></polygon>
    </defs>
    <g id="1366x900-ONE-EXP-light" stroke="none" stroke-width="1" fill="none" fill-rule="evenodd" transform="translate(-307.000000, -2785.000000)">
        <g id="Футер" transform="translate(75.000000, 2644.000000)">
            <g id="Group-2" transform="translate(0.000000, 141.000000)">
                <g id="Page-1-Copy-3" transform="translate(232.000000, 0.000000)">
                    <mask id="mask-2" fill="white">
                        <use xlink:href="#path-1"></use>
                    </mask>
                    <g id="Clip-2"></g>
                    <path d="M8.176896,22 C17.988568,22 23.354136,13.5367707 23.354136,6.19813169 C23.354136,5.95764305 23.349456,5.71823721 23.338952,5.48013072 C24.380408,4.69629586 25.285728,3.71820768 26,2.60455364 C25.04424,3.04655032 24.015576,3.34453533 22.93668,3.47891012 C24.037936,2.79144396 24.88356,1.70345215 25.282296,0.406697576 C24.251344,1.04283928 23.110256,1.50562561 21.895224,1.75466832 C20.921784,0.675230586 19.535464,0 18.001464,0 C15.055352,0 12.666368,2.48728701 12.666368,5.5534359 C12.666368,5.98936893 12.713272,6.41306638 12.804792,6.81976395 C8.371584,6.58772111 4.44028,4.37762947 1.809704,1.01717706 C1.351168,1.83771865 1.087216,2.79144396 1.087216,3.80862101 C1.087216,5.73545364 2.02904,7.43641536 3.461016,8.43150341 C2.586064,8.40345904 1.763944,8.15311697 1.044992,7.73667425 C1.043848,7.75984605 1.043848,7.78312613 1.043848,7.807489 C1.043848,10.4975834 2.882776,12.7430824 5.323448,13.2523206 C4.875416,13.3792241 4.403984,13.447765 3.917264,13.447765 C3.573544,13.447765 3.239288,13.4122494 2.914496,13.3474983 C3.593512,15.5540167 5.562648,17.1596925 7.89776,17.2049533 C6.071624,18.6946618 3.771768,19.5823367 1.272544,19.5823367 C0.842088,19.5823367 0.41756,19.5566744 0,19.50535 C2.360904,21.0805993 5.163912,22 8.176896,22" id="Fill-1" fill="#000000" mask="url(#mask-2)"></path>
                </g>
            </g>
        </g>
    </g>
</svg>