<?xml version="1.0" encoding="UTF-8"?>
<svg width="25px" height="22px" viewBox="0 0 25 22" version="1.1" xmlns="http://www.w3.org/2000/svg" xmlns:xlink="http://www.w3.org/1999/xlink">
    <!-- Generator: Sketch 48.2 (47327) - http://www.bohemiancoding.com/sketch -->
    <title>Page 1</title>
    <desc>Created with Sketch.</desc>
    <defs>
        <polygon id="path-1" points="0 0 24.972973 0 24.972973 22 0 22"></polygon>
    </defs>
    <g id="1366x900-ONE-EXP-light" stroke="none" stroke-width="1" fill="none" fill-rule="evenodd" transform="translate(-368.000000, -2785.000000)">
        <g id="Футер" transform="translate(75.000000, 2644.000000)">
            <g id="Group-2" transform="translate(0.000000, 141.000000)">
                <g id="Page-1" transform="translate(293.000000, 0.000000)">
                    <mask id="mask-2" fill="white">
                        <use xlink:href="#path-1"></use>
                    </mask>
                    <g id="Clip-2"></g>
                    <path d="M8.0636907,11.5651704 L19.3097011,4.55694167 C19.5117327,4.43136006 19.7196746,4.70787543 19.5461122,4.87085358 L10.2649779,13.5999968 C9.93874721,13.907339 9.72830801,14.3184482 9.66870577,14.7647641 L9.35254752,17.1354855 C9.31067612,17.4520084 8.87123446,17.4834248 8.7849111,17.1770091 L7.56897546,12.8541717 C7.42970933,12.3610259 7.63265662,11.8343581 8.0636907,11.5651704 M0.441096935,10.5488943 L6.1953769,12.7219362 L8.42263603,19.969368 C8.56514865,20.4335399 9.1261256,20.6051091 9.49847312,20.297093 L12.706006,17.6514566 C13.0422259,17.3742674 13.5211249,17.3604543 13.8724951,17.6184398 L19.6577416,21.8682529 C20.0559778,22.1612766 20.6203677,21.9404349 20.7202597,21.4533535 L24.958262,0.827058357 C25.0673108,0.295084214 24.5507026,-0.148704856 24.050077,0.0472058246 L0.434354223,9.26503076 C-0.148432486,9.49244212 -0.143354641,10.3272945 0.441096935,10.5488943" id="Fill-1" fill="#000000" mask="url(#mask-2)"></path>
                </g>
            </g>
        </g>
    </g>
</svg>