<?xml version="1.0" encoding="UTF-8"?>
<svg width="27px" height="38px" viewBox="0 0 27 38" version="1.1" xmlns="http://www.w3.org/2000/svg" xmlns:xlink="http://www.w3.org/1999/xlink">
    <!-- Generator: Sketch 48.2 (47327) - http://www.bohemiancoding.com/sketch -->
    <title>Page 1 Copy 2</title>
    <desc>Created with Sketch.</desc>
    <defs>
        <polygon id="path-1" points="0.000777647569 0.000633333333 26.5784386 0.000633333333 26.5784386 37.3641333 0.000777647569 37.3641333"></polygon>
    </defs>
    <g id="1366x900-copy-2" stroke="none" stroke-width="1" fill="none" fill-rule="evenodd" transform="translate(-435.000000, -157.000000)">
        <g id="Page-1-Copy-2" transform="translate(435.000000, 157.000000)">
            <mask id="mask-2" fill="white">
                <use xlink:href="#path-1"></use>
            </mask>
            <g id="Clip-2"></g>
            <path d="M13.2892193,17.6964417 C10.3761515,17.6964417 8.0152135,15.2929417 8.0152135,12.3273583 C8.0152135,9.36335833 10.3761515,6.95985833 13.2892193,6.95985833 C16.2022871,6.95985833 18.5632251,9.36335833 18.5632251,12.3273583 C18.5632251,15.2929417 16.2022871,17.6964417 13.2892193,17.6964417 M13.2892193,-0.000475 C5.94978155,-0.000475 0.000777647569,5.86894167 0.000777647569,13.1079417 C0.000777647569,24.419275 13.2892193,37.3646083 13.2892193,37.3646083 C13.2892193,37.3646083 26.5792163,24.419275 26.5792163,13.1079417 C26.5792163,5.86894167 20.6286571,-0.000475 13.2892193,-0.000475" id="Fill-1" fill="#1D1D1B" mask="url(#mask-2)"></path>
        </g>
    </g>
</svg>