<?xml version="1.0" encoding="UTF-8"?>
<svg width="16px" height="22px" viewBox="0 0 16 22" version="1.1" xmlns="http://www.w3.org/2000/svg" xmlns:xlink="http://www.w3.org/1999/xlink">
    <!-- Generator: Sketch 48.2 (47327) - http://www.bohemiancoding.com/sketch -->
    <title>Icons / Geotag / Black Copy</title>
    <desc>Created with Sketch.</desc>
    <defs></defs>
    <g id="1366x900" stroke="none" stroke-width="1" fill="none" fill-rule="evenodd" transform="translate(-571.000000, -196.000000)">
        <g id="Icons-/-Geotag-/-Black-Copy" transform="translate(572.000000, 197.000000)" stroke="#9D9D9D">
            <g id="Group-3">
                <path d="M13.8757396,6.75869212 C13.8556639,6.92683004 13.8368925,7.09512568 13.8155124,7.26315845 C13.7120713,8.07372201 13.4843761,8.8568935 13.2034859,9.62776221 C12.6585486,11.1232328 11.9255005,12.5408384 11.1148716,13.9251108 C9.89166916,16.0139537 8.50740713,18.008633 7.00115945,19.9312306 C6.98420282,19.9528394 6.96509117,19.972976 6.94161276,20 C6.92148031,19.9804417 6.90248208,19.9658782 6.88847443,19.9478972 C4.93352826,17.4416013 3.15858324,14.8340966 1.7284419,12.0341113 C1.17720969,10.9549371 0.699928798,9.84847609 0.366013649,8.69259362 C0.191173228,8.08733918 0.0588661556,7.47488184 0.017126762,6.8477558 C0.0155955615,6.82462237 0.00589795778,6.80196213 0,6.77909159 L0,6.06442658 C0.0243290759,5.87252433 0.0426467717,5.67978086 0.074008028,5.48887756 C0.284746597,4.20817977 0.850610277,3.07953165 1.79139125,2.12149253 C2.92703168,0.964979154 4.33579293,0.276865001 6.0086012,0.059147954 C6.18571007,0.036067108 6.36378303,0.0195582568 6.54145901,0 L7.33433735,0 C7.54110614,0.0225550865 7.74883902,0.0395371213 7.95458701,0.0685064747 C9.34021011,0.263668435 10.5599531,0.791215609 11.594988,1.66713109 C12.8380961,2.71907088 13.5778928,4.02269178 13.8117128,5.57010741 C13.8365523,5.73445986 13.8545864,5.89965352 13.8757396,6.06442658 L13.8757396,6.75869212 Z" id="Stroke-1"></path>
            </g>
        </g>
    </g>
</svg>