<?xml version="1.0" encoding="UTF-8"?>
<svg width="248px" height="29px" viewBox="0 0 248 29" version="1.1" xmlns="http://www.w3.org/2000/svg" xmlns:xlink="http://www.w3.org/1999/xlink">
    <!-- Generator: Sketch 48.2 (47327) - http://www.bohemiancoding.com/sketch -->
    <title>logo copy</title>
    <desc>Created with Sketch.</desc>
    <defs>
        <polygon id="path-1" points="0.000112727273 28.6688587 247.885131 28.6688587 247.885131 3.86666667e-05 0.000112727273 3.86666667e-05"></polygon>
    </defs>
    <g id="1366x900-EXP-2" stroke="none" stroke-width="1" fill="none" fill-rule="evenodd" transform="translate(-1045.000000, -20.000000)">
        <g id="logo-copy-2" transform="translate(1045.000000, 20.000000)">
            <g id="Page-1">
                <mask id="mask-2" fill="white">
                    <use xlink:href="#path-1"></use>
                </mask>
                <g id="Clip-2"></g>
                <path d="M231.14964,12.8655987 C231.789555,11.1940387 233.463179,9.92770533 236.120913,9.92770533 C239.025143,9.92770533 241.043337,11.3459987 241.043337,12.8655987 L231.14964,12.8655987 Z M247.885131,13.4734387 C247.885131,8.00287867 241.880149,5.67282533 236.563931,5.67282533 C228.491531,5.67282533 224.209022,9.62378533 224.209022,14.2332387 C224.209022,19.3488387 228.491531,22.6919587 237.59764,22.6919587 C241.387907,22.6919587 244.685555,21.9321587 247.491337,20.767132 L247.491337,16.715252 C245.867313,17.3737453 242.077046,18.082892 238.680573,18.082892 C233.413579,18.082892 231.001967,16.4615987 231.001967,15.0939587 L247.737834,15.0939587 C247.835907,14.739772 247.885131,14.0306253 247.885131,13.4734387 L247.885131,13.4734387 Z M159.678295,12.8655987 C160.31821,11.1940387 161.991834,9.92770533 164.649567,9.92770533 C167.553798,9.92770533 169.571992,11.3459987 169.571992,12.8655987 L159.678295,12.8655987 Z M176.414161,13.4734387 C176.414161,8.00287867 170.409179,5.67282533 165.092585,5.67282533 C157.020561,5.67282533 152.737676,9.62378533 152.737676,14.2332387 C152.737676,19.3488387 157.020561,22.6919587 166.126295,22.6919587 C169.916561,22.6919587 173.214585,21.9321587 176.020367,20.767132 L176.020367,16.715252 C174.395967,17.3737453 170.605701,18.082892 167.209228,18.082892 C161.94261,18.082892 159.530622,16.4615987 159.530622,15.0939587 L176.266113,15.0939587 C176.364561,14.739772 176.414161,14.0306253 176.414161,13.4734387 L176.414161,13.4734387 Z M88.1085006,12.8655987 C88.7484158,11.1940387 90.42204,9.92770533 93.0801491,9.92770533 C95.9843794,9.92770533 98.0021976,11.3459987 98.0021976,12.8655987 L88.1085006,12.8655987 Z M104.844367,13.4734387 C104.844367,8.00287867 98.8390097,5.67282533 93.5231673,5.67282533 C85.4503915,5.67282533 81.1678824,9.62378533 81.1678824,14.2332387 C81.1678824,19.3488387 85.4503915,22.6919587 94.5568764,22.6919587 C98.3467673,22.6919587 101.644792,21.9321587 104.450573,20.767132 L104.450573,16.715252 C102.826173,17.3737453 99.0359067,18.082892 95.6398097,18.082892 C90.3728158,18.082892 87.9608279,16.4615987 87.9608279,15.0939587 L104.696695,15.0939587 C104.795143,14.739772 104.844367,14.0306253 104.844367,13.4734387 L104.844367,13.4734387 Z M194.577155,5.67282533 C191.328355,5.67282533 188.719846,7.293732 187.587313,10.1303187 L186.652428,10.1303187 L186.258634,6.02739867 L180.696295,6.02739867 L180.696295,22.286732 L187.291967,22.286732 L187.291967,12.1057987 L197.087592,12.1057987 L197.087592,6.02739867 C196.79187,5.87543867 195.364743,5.67282533 194.577155,5.67282533 L194.577155,5.67282533 Z M139.792452,19.095572 L139.054088,19.095572 L134.377785,6.02739867 L127.585216,6.02739867 L133.885543,22.286732 L144.960622,22.286732 L151.261325,6.02739867 L144.468379,6.02739867 L139.792452,19.095572 Z M123.007361,5.67282533 C119.758937,5.67282533 117.150052,7.293732 116.017895,10.1303187 L115.082634,10.1303187 L114.68884,6.02739867 L109.126501,6.02739867 L109.126501,22.286732 L115.722549,22.286732 L115.722549,12.1057987 L125.517798,12.1057987 L125.517798,6.02739867 C125.222452,5.87543867 123.794949,5.67282533 123.007361,5.67282533 L123.007361,5.67282533 Z M211.164973,13.0175587 C209.245604,13.0175587 207.276634,12.764292 207.276634,11.700572 C207.276634,10.8901187 208.211895,10.484892 210.574658,10.484892 C213.38044,10.484892 217.465676,10.9914253 220.616028,12.004492 L220.616028,7.293732 C218.105592,6.43262533 213.67541,5.67282533 209.048707,5.67282533 C205.012319,5.67282533 200.286792,6.533932 200.286792,10.7381587 C200.286792,15.2969587 205.849131,15.2969587 211.164973,15.2969587 C213.03587,15.2969587 214.512598,15.6008787 214.512598,16.6139453 C214.512598,17.6266253 212.937046,17.879892 211.066901,17.879892 C207.522755,17.879892 202.846828,17.0698253 200.041046,16.0061053 L200.041046,20.7164787 C201.960416,21.6282387 206.636719,22.6919587 210.820404,22.6919587 C217.219555,22.6919587 221.502064,21.4256253 221.502064,17.4746653 C221.502064,13.0175587 216.481192,13.0175587 211.164973,13.0175587 L211.164973,13.0175587 Z M14.7670097,5.67282533 C11.370537,5.67282533 8.71242788,7.445692 7.43259758,9.117252 L6.44811273,9.117252 L6.44811273,3.86666667e-05 L0.000112727273,3.86666667e-05 L0.000112727273,22.286732 L6.44811273,22.286732 L6.44811273,11.092732 L12.8472642,11.092732 C15.4557733,11.092732 16.7848279,12.2071053 16.7848279,14.891732 L16.7848279,22.286732 L23.2332036,22.286732 L23.2332036,15.2969587 C23.2332036,9.21855867 20.673543,5.67282533 14.7670097,5.67282533 L14.7670097,5.67282533 Z M66.3029127,18.335772 C64.1370461,18.335772 61.5773855,18.082892 60.2487067,17.879892 L60.2487067,11.092732 L66.7951552,11.092732 C69.5024885,11.092732 71.2741855,11.9538387 71.2741855,14.739772 C71.2741855,17.5253187 69.0102461,18.335772 66.3029127,18.335772 L66.3029127,18.335772 Z M69.2563673,5.67282533 C64.9246339,5.67282533 62.3157491,7.80026533 61.2328158,9.117252 L60.2487067,9.117252 L59.1657733,6.02739867 L53.8003309,6.02739867 L53.8003309,28.669052 L60.2487067,28.669052 L60.2487067,21.374972 C61.134743,21.7295453 64.6292885,22.6919587 67.5335188,22.6919587 C73.5881006,22.6919587 77.8702339,20.1086387 77.8702339,13.8786653 C77.8702339,8.76267867 74.22764,5.67282533 69.2563673,5.67282533 L69.2563673,5.67282533 Z M38.0493248,20.210332 L37.1632885,20.210332 L33.3730218,6.02739867 L26.5804521,6.02739867 L31.4040521,22.286732 L37.212137,22.286732 L34.6036279,28.669052 L41.1008521,28.669052 L50.6007552,6.02739867 L43.7589612,6.02739867 L38.0493248,20.210332 Z" id="Fill-1" fill="#FFFFFF" mask="url(#mask-2)"></path>
            </g>
        </g>
    </g>
</svg>