<?xml version="1.0" encoding="UTF-8"?>
<svg width="281px" height="32px" viewBox="0 0 281 32" version="1.1" xmlns="http://www.w3.org/2000/svg" xmlns:xlink="http://www.w3.org/1999/xlink">
    <!-- Generator: Sketch 48.2 (47327) - http://www.bohemiancoding.com/sketch -->
    <title>Fill 1</title>
    <desc>Created with Sketch.</desc>
    <defs></defs>
    <g id="Branding-/-Logo-/-White" stroke="none" stroke-width="1" fill="none" fill-rule="evenodd">
        <g id="Page-1" fill="#FFFFFF">
            <path d="M261.907455,14.1965227 C262.63252,12.3520427 264.528844,10.9547093 267.540228,10.9547093 C270.830908,10.9547093 273.117652,12.5197227 273.117652,14.1965227 L261.907455,14.1965227 Z M280.869846,14.8672427 C280.869846,8.83076267 274.065814,6.25966933 268.042196,6.25966933 C258.895646,6.25966933 254.043287,10.6193493 254.043287,15.7056427 C254.043287,21.3504427 258.895646,25.0394027 269.213455,25.0394027 C273.508072,25.0394027 277.24452,24.2010027 280.423652,22.915456 L280.423652,18.444416 C278.583528,19.1710293 274.288911,19.953536 270.440488,19.953536 C264.472644,19.953536 261.740132,18.1645227 261.740132,16.6554027 L280.702949,16.6554027 C280.814072,16.264576 280.869846,15.4820693 280.869846,14.8672427 L280.869846,14.8672427 Z M180.92581,14.1965227 C181.650875,12.3520427 183.547199,10.9547093 186.558582,10.9547093 C189.849263,10.9547093 192.136007,12.5197227 192.136007,14.1965227 L180.92581,14.1965227 Z M199.888626,14.8672427 C199.888626,8.83076267 193.084594,6.25966933 187.06055,6.25966933 C177.914426,6.25966933 173.061641,10.6193493 173.061641,15.7056427 C173.061641,21.3504427 177.914426,25.0394027 188.23181,25.0394027 C192.526426,25.0394027 196.2633,24.2010027 199.442432,22.915456 L199.442432,18.444416 C197.601882,19.1710293 193.307266,19.953536 189.458843,19.953536 C183.491425,19.953536 180.758487,18.1645227 180.758487,16.6554027 L199.720878,16.6554027 C199.832426,16.264576 199.888626,15.4820693 199.888626,14.8672427 L199.888626,14.8672427 Z M99.8326156,14.1965227 C100.557681,12.3520427 102.454005,10.9547093 105.465814,10.9547093 C108.756494,10.9547093 111.042813,12.5197227 111.042813,14.1965227 L99.8326156,14.1965227 Z M118.795432,14.8672427 C118.795432,8.83076267 111.990975,6.25966933 105.967782,6.25966933 C96.8208065,6.25966933 91.9684474,10.6193493 91.9684474,15.7056427 C91.9684474,21.3504427 96.8208065,25.0394027 107.139041,25.0394027 C111.433232,25.0394027 115.170107,24.2010027 118.349238,22.915456 L118.349238,18.444416 C116.508688,19.1710293 112.214072,19.953536 108.366075,19.953536 C102.398231,19.953536 99.6652929,18.1645227 99.6652929,16.6554027 L118.62811,16.6554027 C118.739658,16.264576 118.795432,15.4820693 118.795432,14.8672427 L118.795432,14.8672427 Z M220.46847,6.25966933 C216.78737,6.25966933 213.831761,8.048256 212.548528,11.1782827 L211.489243,11.1782827 L211.043049,6.65092267 L204.74056,6.65092267 L204.74056,24.592256 L212.213882,24.592256 L212.213882,13.3581227 L223.312957,13.3581227 L223.312957,6.65092267 C222.977885,6.48324267 221.360858,6.25966933 220.46847,6.25966933 L220.46847,6.25966933 Z M158.393867,21.070976 L157.557253,21.070976 L152.2587,6.65092267 L144.562281,6.65092267 L151.700958,24.592256 L164.249737,24.592256 L171.38884,6.65092267 L163.691994,6.65092267 L158.393867,21.070976 Z M139.375276,6.25966933 C135.694602,6.25966933 132.738567,8.048256 131.45576,11.1782827 L130.396049,11.1782827 L129.949855,6.65092267 L123.647366,6.65092267 L123.647366,24.592256 L131.121114,24.592256 L131.121114,13.3581227 L142.219763,13.3581227 L142.219763,6.65092267 C141.885117,6.48324267 140.267664,6.25966933 139.375276,6.25966933 L139.375276,6.25966933 Z M239.263538,14.3642027 C237.088769,14.3642027 234.857799,14.084736 234.857799,12.910976 C234.857799,12.0166827 235.91751,11.569536 238.594673,11.569536 C241.773805,11.569536 246.402641,12.1284693 249.972193,13.246336 L249.972193,8.048256 C247.127707,7.09806933 242.108025,6.25966933 236.865672,6.25966933 C232.292184,6.25966933 226.937857,7.209856 226.937857,11.8490027 C226.937857,16.8794027 233.240346,16.8794027 239.263538,16.8794027 C241.383385,16.8794027 243.056613,17.2147627 243.056613,18.3326293 C243.056613,19.4500693 241.271411,19.729536 239.152416,19.729536 C235.13667,19.729536 229.838543,18.8356693 226.659411,17.6619093 L226.659411,22.8595627 C228.834181,23.8656427 234.132734,25.0394027 238.873119,25.0394027 C246.12377,25.0394027 250.976129,23.6420693 250.976129,19.2823893 C250.976129,14.3642027 245.287157,14.3642027 239.263538,14.3642027 L239.263538,14.3642027 Z M16.7319747,6.25966933 C12.883552,6.25966933 9.87174288,8.215936 8.42161258,10.060416 L7.30612773,10.060416 L7.30612773,4.26666667e-05 L0.000127727273,4.26666667e-05 L0.000127727273,24.592256 L7.30612773,24.592256 L7.30612773,12.240256 L14.5567792,12.240256 C17.5123883,12.240256 19.0182929,13.4699093 19.0182929,16.432256 L19.0182929,24.592256 L26.3247186,24.592256 L26.3247186,16.8794027 C26.3247186,10.1722027 23.424458,6.25966933 16.7319747,6.25966933 L16.7319747,6.25966933 Z M75.1254777,20.232576 C72.6714111,20.232576 69.7711505,19.953536 68.2656717,19.729536 L68.2656717,12.240256 L75.6832202,12.240256 C78.7508035,12.240256 80.7582505,13.1904427 80.7582505,16.264576 C80.7582505,19.3382827 78.1930611,20.232576 75.1254777,20.232576 L75.1254777,20.232576 Z M78.4719323,6.25966933 C73.5637989,6.25966933 70.6077641,8.60718933 69.3807308,10.060416 L68.2656717,10.060416 L67.0386383,6.65092267 L60.9592459,6.65092267 L60.9592459,31.634816 L68.2656717,31.634816 L68.2656717,23.586176 C69.269608,23.9774293 73.2291535,25.0394027 76.5198338,25.0394027 C83.3800656,25.0394027 88.2319989,22.1888427 88.2319989,15.3143893 C88.2319989,9.66916267 84.104705,6.25966933 78.4719323,6.25966933 L78.4719323,6.25966933 Z M43.1123398,22.301056 L42.1084035,22.301056 L37.8137868,6.65092267 L30.1173671,6.65092267 L35.5828171,24.592256 L42.163752,24.592256 L39.2081429,31.634816 L46.5699171,31.634816 L57.3339202,6.65092267 L49.5817262,6.65092267 L43.1123398,22.301056 Z" id="Fill-1"></path>
        </g>
    </g>
</svg>