<?xml version="1.0" encoding="UTF-8"?>
<svg width="286px" height="34px" viewBox="0 0 286 34" version="1.1" xmlns="http://www.w3.org/2000/svg" xmlns:xlink="http://www.w3.org/1999/xlink">
    <!-- Generator: Sketch 48.2 (47327) - http://www.bohemiancoding.com/sketch -->
    <title>logo copy</title>
    <desc>Created with Sketch.</desc>
    <defs>
        <polygon id="path-1" points="0.00013 33.6117653 285.86753 33.6117653 285.86753 4.53333333e-05 0.00013 4.53333333e-05"></polygon>
    </defs>
    <g id="Menu-/-1366-px-/-Black-2" stroke="none" stroke-width="1" fill="none" fill-rule="evenodd" transform="translate(-934.000000, 0.000000)">
        <g id="Branding-/-Logo-/-Black" transform="translate(934.000000, 0.000000)">
            <g id="Page-1">
                <mask id="mask-2" fill="white">
                    <use xlink:href="#path-1"></use>
                </mask>
                <g id="Clip-2"></g>
                <path d="M266.56773,15.0838053 C267.305697,13.1240453 269.235763,11.6393787 272.30073,11.6393787 C275.649963,11.6393787 277.977397,13.3022053 277.977397,15.0838053 L266.56773,15.0838053 Z M285.86753,15.7964453 C285.86753,9.38268533 278.94243,6.65089867 272.81163,6.65089867 C263.50233,6.65089867 258.56363,11.2830587 258.56363,16.6872453 C258.56363,22.6848453 263.50233,26.6043653 274.00373,26.6043653 C278.374763,26.6043653 282.177697,25.7135653 285.413397,24.347672 L285.413397,19.597192 C283.54053,20.3692187 279.169497,21.200632 275.252597,21.200632 C269.178563,21.200632 266.39743,19.2998053 266.39743,17.6963653 L285.697663,17.6963653 C285.810763,17.281112 285.86753,16.4496987 285.86753,15.7964453 L285.86753,15.7964453 Z M184.14513,15.0838053 C184.883097,13.1240453 186.813163,11.6393787 189.87813,11.6393787 C193.227363,11.6393787 195.554797,13.3022053 195.554797,15.0838053 L184.14513,15.0838053 Z M203.445363,15.7964453 C203.445363,9.38268533 196.520263,6.65089867 190.38903,6.65089867 C181.080163,6.65089867 176.14103,11.2830587 176.14103,16.6872453 C176.14103,22.6848453 181.080163,26.6043653 191.58113,26.6043653 C195.952163,26.6043653 199.75553,25.7135653 202.99123,24.347672 L202.99123,19.597192 C201.11793,20.3692187 196.746897,21.200632 192.829997,21.200632 C186.756397,21.200632 183.97483,19.2998053 183.97483,17.6963653 L203.27463,17.6963653 C203.388163,17.281112 203.445363,16.4496987 203.445363,15.7964453 L203.445363,15.7964453 Z M101.608997,15.0838053 C102.346963,13.1240453 104.27703,11.6393787 107.34243,11.6393787 C110.691663,11.6393787 113.018663,13.3022053 113.018663,15.0838053 L101.608997,15.0838053 Z M120.90923,15.7964453 C120.90923,9.38268533 113.983697,6.65089867 107.85333,6.65089867 C98.5435967,6.65089867 93.6048967,11.2830587 93.6048967,16.6872453 C93.6048967,22.6848453 98.5435967,26.6043653 109.04543,26.6043653 C113.41603,26.6043653 117.219397,25.7135653 120.455097,24.347672 L120.455097,19.597192 C118.581797,20.3692187 114.210763,21.200632 110.294297,21.200632 C104.220263,21.200632 101.438697,19.2998053 101.438697,17.6963653 L120.73893,17.6963653 C120.852463,17.281112 120.90923,16.4496987 120.90923,15.7964453 L120.90923,15.7964453 Z M224.391397,6.65089867 C220.644797,6.65089867 217.636597,8.551272 216.33053,11.8769253 L215.252397,11.8769253 L214.798263,7.06660533 L208.38363,7.06660533 L208.38363,26.129272 L215.98993,26.129272 L215.98993,14.1930053 L227.286497,14.1930053 L227.286497,7.06660533 C226.945463,6.88844533 225.299663,6.65089867 224.391397,6.65089867 L224.391397,6.65089867 Z M161.212263,22.387912 L160.360763,22.387912 L154.96793,7.06660533 L147.134563,7.06660533 L154.400263,26.129272 L167.17233,26.129272 L174.438463,7.06660533 L166.604663,7.06660533 L161.212263,22.387912 Z M141.855263,6.65089867 C138.109097,6.65089867 135.100463,8.551272 133.79483,11.8769253 L132.716263,11.8769253 L132.26213,7.06660533 L125.847497,7.06660533 L125.847497,26.129272 L133.45423,26.129272 L133.45423,14.1930053 L144.750363,14.1930053 L144.750363,7.06660533 C144.409763,6.88844533 142.76353,6.65089867 141.855263,6.65089867 L141.855263,6.65089867 Z M243.520897,15.2619653 C241.30743,15.2619653 239.036763,14.965032 239.036763,13.717912 C239.036763,12.7677253 240.11533,12.292632 242.84013,12.292632 C246.07583,12.292632 250.78703,12.8864987 254.420097,14.074232 L254.420097,8.551272 C251.524997,7.54169867 246.415997,6.65089867 241.080363,6.65089867 C236.425497,6.65089867 230.975897,7.660472 230.975897,12.5895653 C230.975897,17.9343653 237.39053,17.9343653 243.520897,17.9343653 C245.678463,17.9343653 247.381463,18.2906853 247.381463,19.4784187 C247.381463,20.6656987 245.564497,20.962632 243.407797,20.962632 C239.320597,20.962632 233.928197,20.0128987 230.692497,18.7657787 L230.692497,24.2882853 C232.905963,25.3572453 238.298797,26.6043653 243.12353,26.6043653 C250.503197,26.6043653 255.441897,25.1196987 255.441897,20.4875387 C255.441897,15.2619653 249.651697,15.2619653 243.520897,15.2619653 L243.520897,15.2619653 Z M17.0296967,6.65089867 C13.1127967,6.65089867 10.0473967,8.729432 8.57146333,10.689192 L7.43613,10.689192 L7.43613,4.53333333e-05 L0.00013,4.53333333e-05 L0.00013,26.129272 L7.43613,26.129272 L7.43613,13.005272 L14.8157967,13.005272 C17.8239967,13.005272 19.3566967,14.3117787 19.3566967,17.459272 L19.3566967,26.129272 L26.79313,26.129272 L26.79313,17.9343653 C26.79313,10.8079653 23.8412633,6.65089867 17.0296967,6.65089867 L17.0296967,6.65089867 Z M76.46223,21.497112 C73.9644967,21.497112 71.01263,21.200632 69.4803633,20.962632 L69.4803633,13.005272 L77.0298967,13.005272 C80.1520633,13.005272 82.19523,14.0148453 82.19523,17.281112 C82.19523,20.5469253 79.5843967,21.497112 76.46223,21.497112 L76.46223,21.497112 Z M79.86823,6.65089867 C74.8727633,6.65089867 71.86413,9.14513867 70.6152633,10.689192 L69.4803633,10.689192 L68.2314967,7.06660533 L62.04393,7.06660533 L62.04393,33.611992 L69.4803633,33.611992 L69.4803633,25.060312 C70.5021633,25.4760187 74.5321633,26.6043653 77.8813967,26.6043653 C84.8636967,26.6043653 89.8019633,23.5756453 89.8019633,16.2715387 C89.8019633,10.2734853 85.60123,6.65089867 79.86823,6.65089867 L79.86823,6.65089867 Z M43.8794633,23.694872 L42.8576633,23.694872 L38.48663,7.06660533 L30.6532633,7.06660533 L36.2159633,26.129272 L42.9139967,26.129272 L39.9057967,33.611992 L47.3985633,33.611992 L58.3540967,7.06660533 L50.4639633,7.06660533 L43.8794633,23.694872 Z" id="Fill-1" fill="#000000" mask="url(#mask-2)"></path>
            </g>
        </g>
    </g>
</svg>