<svg width="951px" height="209px" viewBox="0 0 951 209" version="1.1" xmlns="http://www.w3.org/2000/svg" xmlns:xlink="http://www.w3.org/1999/xlink">
    <g id="-" stroke="none" stroke-width="1" fill="none" fill-rule="evenodd">
        <g id="1366х900-main-copy" transform="translate(-126.000000, -193.000000)" fill-rule="nonzero">
            <g id="hv_planets_Artboard-58" transform="translate(126.000000, 193.000000)">
                <path d="M688,32.2182694 C702.302613,29.6785989 716.179594,27.272509 729.630941,25 C744.458076,28.3336463 760.898501,50.012211 762.162441,67.9150546 C762.435817,67.9852743 762.715827,68.0519746 763,68.1167667 C749.269202,71.672984 734.966921,75.3007284 720.093156,79 C718.936881,59.919163 702.038339,40.8888706 688,32.2182694 Z" id="Shape" fill="#FF0619"></path>
                <path d="M87,204 C95.0545634,193.034581 102.034323,174.078733 105.30522,163.100774 C127.147457,156.804706 151.865427,150.062485 179,143 C167.510521,172.37278 155.344681,187.945527 143.879017,196.358404 C122.984793,199.425915 103.930679,201.987057 87,204 Z" id="Shape" fill="#FF0619"></path>
                <path d="M279.4328,172.850846 C263.466721,175.723236 247.989121,178.43962 233,181 C241.155684,170.362923 245.106016,139.882767 242.342031,126.362789 C258.91479,122.302676 276.08311,118.181747 293.846991,114 C293.987765,115.471143 295.834546,135.211994 294.545035,145.473979 C292.102251,164.916034 283.30713,171.060135 279.4328,172.850846 Z" id="Shape" fill="#FF0619"></path>
                <path d="M813,12.0934538 C820.631041,10.9902474 827.995914,9.95909609 835.09462,9 C863.215737,9.44075073 876.764025,31.6169703 879,35.6575992 C867.52235,39.2441322 854.801671,43.0358641 840.964356,47 C841.2195,46.7003425 841.467618,46.3984328 841.705429,46.0932394 C840.890184,35.275576 823.934639,18.299411 813,12.0934538 Z" id="Shape" fill="#FF0619"></path>
                <path d="M905,1.10782256 C933.627713,-1.01037288 950.038864,-0.14629479 950.959142,4.17778935 C951.835988,8.29765116 938.571067,15.1551541 913.913476,24 C917.605913,15.3022819 911.348827,5.26298413 905,1.10782256 Z" id="Shape" fill="#FF0619"></path>
                <path d="M409,88.1043496 C425.994288,84.4019675 443.262746,80.7005177 460.805376,77 C479.754783,89.6772328 482.954527,118.615209 481.788108,133.892612 C481.654516,133.920535 481.521735,133.948553 481.388389,133.976614 C458.213267,138.839105 435.44014,143.513567 413.069009,148 C425.096877,132.356094 416.999847,100.022675 409,88.1043496 Z" id="Shape" fill="#FF0619"></path>
                <path d="M567,54.9352662 C573.782871,53.6037556 580.514289,52.2920002 587.194252,51 C627.471263,62.6054047 639.058613,88.6705217 642,98.121002 C623.711976,102.379071 604.915142,106.672071 585.609498,111 C597.140043,96.6091223 577.130938,66.9700273 567,54.9352662 Z" id="Shape" fill="#FF0619"></path>
                <path d="M835,8.83508824 C862.816684,5.04682781 886.414875,2.39275038 904.931373,1 C911.314237,5.24684779 917.604868,15.5076153 913.892635,24.3973076 C904.111176,27.9643555 892.54656,31.8475638 879.367807,36 C877.108282,31.8824842 863.417278,9.28421621 835,8.83508824 Z" id="Shape" fill="#0512AF"></path>
                <path d="M730,25.0258823 C760.140435,19.9718091 787.991953,15.605026 813.045501,12 C824.075017,18.2301864 841.177681,35.2725874 842,46.1325802 C841.760125,46.4389863 841.509854,46.7420536 841.252496,47.042881 C818.242658,53.6035528 792.157445,60.6362907 763.510145,68 C763.22477,67.9354117 762.943534,67.868985 762.669045,67.7989554 C761.399771,49.9553236 744.88983,28.3484969 730,25.0258823 Z" id="Shape" fill="#0512AF"></path>
                <path d="M587,50.8398046 C622.301306,43.9602117 656.080793,37.6561908 687.84294,32 C701.909237,40.7131461 718.841486,59.8368911 720,79.0112902 C695.204661,85.195339 668.927294,91.5492578 641.432829,98 C638.511456,88.5416676 627.00294,62.4548755 587,50.8398046 Z" id="Shape" fill="#0512AF"></path>
                <path d="M461,76.5747486 C463.702357,76.00598 466.409645,75.4374259 469.121865,74.8690862 C502.660555,67.8456029 535.429054,61.2064708 567.088045,55 C577.139585,66.9237338 596.991895,96.2894024 585.551727,110.547495 C552.225667,118.006013 517.525096,125.527088 481.849766,133 C483.008805,117.84809 479.829325,89.1478487 461,76.5747486 Z" id="Shape" fill="#0512AF"></path>
                <path d="M413.919166,147.499215 C366.792401,156.938625 321.796347,165.491175 280,173 C283.884486,171.207164 292.702675,165.055536 295.151873,145.589819 C296.444765,135.31535 294.593163,115.550486 294.451999,114.077553 C330.851393,105.522869 369.539021,96.7712102 409.869914,88 C417.83093,99.8394558 425.888647,131.958879 413.919166,147.499215 Z" id="Shape" fill="#0512AF"></path>
                <path d="M232.769073,181.788153 C200.537265,187.304012 170.749078,192.070387 144,196 C155.388237,187.638628 167.471899,172.161292 178.883778,142.968331 C198.724443,137.801041 219.862841,132.461874 242.122338,127 C244.889657,140.557299 240.934565,171.121688 232.769073,181.788153 Z" id="Shape" fill="#0512AF"></path>
                <path d="M87.7889008,203.708693 C33.6738436,210.145553 1.34477894,210.954655 0.0409332487,204.780776 C-1.46087015,197.670129 38.445556,182.481894 106,163 C102.745921,173.926848 95.8020496,192.794369 87.7889008,203.708693 Z" id="Shape" fill="#0512AF"></path>
            </g>
        </g>
    </g>
</svg>
