<svg width="98px" height="97px" viewBox="0 0 98 97" version="1.1" xmlns="http://www.w3.org/2000/svg" xmlns:xlink="http://www.w3.org/1999/xlink">
    <g id="-" stroke="none" stroke-width="1" fill="none" fill-rule="evenodd">
        <g id="1366х900-main-copy" transform="translate(-615.000000, -495.000000)" fill-rule="nonzero">
            <g id="hv_planets_Artboard-59-copy-3" transform="translate(615.000000, 495.000000)">
                <circle id="Oval" fill="#0512AF" cx="49.19479" cy="48.64014" r="48.19471"></circle>
                <path d="M49.00876,2.47749 C48.2975,2.96499 47.6271,3.51187 46.87919,3.94622 C46.39929,4.22493 46.07904,4.33287 45.92729,4.26708 C45.84763,4.06403 46.54153,3.32879 49.1948,2.35208 C49.13899,2.38971 49.06428,2.43947 49.0088,2.47753" id="Shape" fill="#FF0619"></path>
                <path d="M49.2814,2.48619 C50.25519,4.03963 49.76049,4.62189 49.42502,4.52239 C49.34502,4.49867 48.65917,4.23625 49.19478,2.35206 C49.22078,2.3923 49.25595,2.44561 49.28139,2.4862" id="Shape" fill="#FF0619"></path>
                <path d="M48.79494,2.4284 C47.76899,2.63051 46.85046,2.84887 45.78685,3.10173 C45.0302108,3.35707058 44.2405923,3.50153201 43.44256,3.53062 L43.43328,3.49953 C43.44102,3.49279 44.49953,2.79835 49.19479,2.35205 C49.07479,2.37496 48.91479,2.40481 48.79494,2.42841" id="Shape" fill="#FF0619"></path>
                <path d="M49.66148,2.38859 C51.528032,2.44818229 53.3749078,2.78907618 55.13974,3.39976 C55.01383,3.48684 54.63657,3.42886 52.76513,3.03489 C51.10753,2.686 50.43786,2.55406 49.19479,2.35205 C49.33479,2.36305 49.52154,2.37675 49.66147,2.38859" id="Shape" fill="#FF0619"></path>
                <path d="M49.5342,2.45 C51.91111,3.1572 53.14014,3.89488 53.11347,4.1555 C53.0599,4.18429 52.91759,4.26072 52.06492,3.86831 C51.08053,3.41531 50.16127,2.83899 49.19478,2.35205 C49.2966,2.38144 49.43261,2.41977 49.53419,2.45" id="Shape" fill="#FF0619"></path>
                <path d="M49.65087,2.31175 C51.5880393,2.05710417 53.5524203,2.09397297 55.47867,2.42113 C55.33555,2.47349 55.28734,2.49113 53.66598,2.43033 C51.82486,2.36149 50.84554,2.33333 49.19479,2.35205 C49.33161,2.33996 49.51397,2.32296 49.65087,2.31175" id="Shape" fill="#FF0619"></path>
                <path d="M37.198,10.33583 C33.4907,13.85843 31.07953,13.834 31.18271,12.4823 C31.37744,9.93137 38.41066,6.12736 40.10476,6.37053 C40.92239,6.78327 37.23533,10.30035 37.19799,10.33584" id="Shape" fill="#FF0619"></path>
                <path d="M47.28719,11.49157 C46.52382,15.17931 43.29996,16.11529 42.28929,14.30176 C41.02999,12.04207 44.50722,7.42622 46.34205,7.36259 C47.49829,7.56611 47.57121,10.11939 47.28718,11.49159" id="Shape" fill="#FF0619"></path>
                <path d="M58.29345,10.89909 C59.93352,13.44657 58.92477,15.27644 56.97935,14.93217 C53.38941,14.29688 52.02117,8.19517 53.30562,7.34366 C53.3947433,7.29537498 53.4912993,7.26230076 53.59131,7.2458 C54.85457,7.24208 57.23268,9.25147 58.29346,10.89909" id="Shape" fill="#FF0619"></path>
                <path d="M65.791,8.90263 C68.62305,10.82416 69.4615,12.67102 68.16142,12.83518 C65.78866,13.13476 58.58042,6.79468 59.09891,6.16456 C59.1227482,6.14413936 59.1492923,6.12710849 59.17779,6.11395 C60.03879,5.95658 63.40035,7.28064 65.791,8.90264" id="Shape" fill="#FF0619"></path>
                <path d="M68.39949,5.96834 C71.68176,7.34412 73.74649,8.99934 73.3037,9.30976 C72.8383,9.63607 61.94829,4.87768 61.7667,4.26876 C62.05145,4.03233 65.30137,4.66986 68.39944,5.9684" id="Shape" fill="#FF0619"></path>
                <path d="M70.58675,5.51956 C69.0335,5.04217 67.53914,4.39732 65.99026,3.90756 C64.32662,3.3815 62.63075,2.97087 60.95185,2.49944 C64.2884972,3.05237436 67.5314965,4.06891289 70.58675,5.51956" id="Shape" fill="#FF0619"></path>
                <path d="M58.80611,62.45388 C58.23728,67.95613 51.16123,70.24557 47.6717,66.05638 C46.1465819,64.1441896 45.8305367,61.5352656 46.8549549,59.3142242 C47.8793731,57.0931829 50.0690135,55.6399644 52.51357,55.55872 C54.2979141,55.5330157 56.0078168,56.2727993 57.2107511,57.5909395 C58.4136854,58.9090796 58.9944361,60.679327 58.8061,62.45389" id="Shape" fill="#FF0619"></path>
                <path d="M83.05394,58.88843 C82.59378,64.52303 76.90224,67.83587 73.96443,64.17908 C71.3775,60.95902 73.11224,54.25336 77.97889,52.94033 C82.0791,52.33867 83.2678,56.26942 83.05389,58.88843" id="Shape" fill="#FF0619"></path>
                <path d="M31.45158,61.74719 C30.98797,66.92808 25.44628,68.37161 22.18658,64.1606 C18.96565,59.9997 20.67758,53.37897 26.06852,53.89735 C30.18752,54.77386 31.69605,59.01535 31.45162,61.74718" id="Shape" fill="#FF0619"></path>
                <path d="M9.415,56.85188 C9.25244,60.10838 7.92726,61.81911 6.33247,60.83121 C9.34128,61.96477 9.98789,54.55006 7.91962,50.19401 C7.59460313,49.3850425 7.05374322,48.6808233 6.356,48.15812 C6.393,48.17612 6.44195,48.20087 6.47833,48.22007 C8.8536,49.78237 9.54019,54.34371 9.41501,56.85189" id="Shape" fill="#FF0619"></path>
                <path d="M96.54943,51.78055 C96.4017,56.30579 94.90692,60.21506 93.74343,59.11899 C92.22952,57.69283 92.56852,48.57666 94.64619,46.40799 C95.96019,45.4844 96.65725,48.47763 96.54946,51.78053" id="Shape" fill="#FF0619"></path>
                <path d="M70.28868,42.12377 C70.5920281,44.3504734 69.5320598,46.5422668 67.5982323,47.6870547 C65.6644048,48.8318426 63.2329694,48.7068917 61.42668,47.3699 C57.38968,44.3279 58.05903,36.9339 63.64968,36.04781 C67.83177,35.85389 70.04955,39.48409 70.28863,42.12381" id="Shape" fill="#FF0619"></path>
                <path d="M44.72752,43.49976 C44.0166,48.85817 37.7468,50.88017 34.71452,46.72893 C31.95927,42.95693 34.42176,36.38134 39.76168,36.43266 C43.76793,36.92711 45.07731,40.86293 44.7275,43.49976" id="Shape" fill="#FF0619"></path>
                <path d="M21.29621,40.81566 C19.78304,45.46314 15.45621,46.95866 13.57991,43.48266 C11.48681,39.60492 14.73346,32.22234 19.20835,33.16361 C22.02415,34.21616 22.12435,38.27193 21.2962,40.81567" id="Shape" fill="#FF0619"></path>
                <path d="M93.519,29.83413 C94.75332,32.73413 95.89349,36.33772 95.556,36.87206 C94.77838,37.02056 90.76642,27.5313 90.73261,25.46363 C90.76161,25.29897 90.82945,24.91336 91.51823,25.91652 C92.2994208,27.1608088 92.9689432,28.4718009 93.51896,29.83415" id="Shape" fill="#FF0619"></path>
                <path d="M88.83691,36.91359 C90.17169,41.307 88.3663,44.96375 85.50626,43.65968 C81.97858,42.05116 79.82014,33.6291 83.35946,31.82531 C85.81811,31.09022 88.0814,34.427 88.8369,36.9136" id="Shape" fill="#FF0619"></path>
                <path d="M20.56847,21.58512 C17.592,25.28837 14.65454,26.01424 14.33755,24.0109 C13.84423,20.89312 20.27363,14.41659 22.8307,15.45548 C24.17385,16.49038 21.58223,20.32381 20.56846,21.58512" id="Shape" fill="#FF0619"></path>
                <path d="M35.86227,25.09622 C34.01356,29.78122 29.12359,30.81048 27.89366,27.7227 C26.55887,24.37163 30.86057,18.62613 34.46913,18.94029 C37.10459,19.58013 36.54579,23.36399 35.86227,25.09622" id="Shape" fill="#FF0619"></path>
                <path d="M55.36362,25.71816 C55.62252,30.23081 51.13334,32.25 48.28444,29.93628 C44.72558,27.04598 46.65444,20.59172 50.24157,20.0866 C50.35839,20.07015 50.51605,20.06569 50.63369,20.05674 C53.64775,20.21334 55.23792,23.52756 55.36362,25.71817" id="Shape" fill="#FF0619"></path>
                <path d="M73.4456,23.12955 C75.4736,27.02165 73.42186,29.60533 70.41031,28.69304 C65.94396,27.34004 63.70753,20.2591 66.3238,18.66537 C66.508532,18.5674306 66.7040562,18.4913701 66.90641,18.43873 C69.41068,18.11695 72.31316,20.95621 73.44559,23.12955" id="Shape" fill="#FF0619"></path>
                <path d="M83.05122,18.11473 C85.83502,21.19416 86.40043,23.98649 84.79063,23.82308 C82.29957,23.57022 75.95888,15.88762 77.08092,14.48172 C78.09292,13.90064 81.06764,15.92051 83.05121,18.11472" id="Shape" fill="#FF0619"></path>
                <path d="M81.82578,13.24555 C83.16919,14.5793 84.92116,16.39921 86.1749,17.8176 C84.29766,15.97181 83.59525,15.28116 82.00579,13.83086 C80.52112,12.47581 78.93728,11.23223 77.5,9.82386 C77.4559708,9.77741796 77.4145951,9.72853038 77.37607,9.67743 C77.42426,9.66878 77.46977,9.66062 78.02898,10.08611 C79.18356,11.01495 80.74677,12.22989 81.82578,13.24553" id="Shape" fill="#FF0619"></path>
                <path d="M21.54519,76.84493 C22.23195,79.86765 20.56299,81.1023 17.90072,79.541 C13.6821,77.067 11.1851,70.70606 14.08388,69.8179 C14.5853975,69.6932454 15.1118707,69.7122254 15.60311,69.87267 C18.86634,71.00538 21.04232,74.63167 21.54518,76.84493" id="Shape" fill="#FF0619"></path>
                <path d="M44.71051,79.49856 C44.41139,83.78404 38.30925,84.74103 34.96527,81.02691 C32.09396,77.83775 33.48146,73.42105 38.58547,73.52808 C43.06291,74.02523 44.86263,77.31871 44.71047,79.49858" id="Shape" fill="#FF0619"></path>
                <path d="M69.98148,78.13819 C68.34319,82.81673 61.2008,84.72799 59.21759,81.01856 C57.8393,78.44056 60.01433,73.86642 65.29659,73.09775 C69.41727,72.85964 70.91453,75.47355 69.98147,78.13819" id="Shape" fill="#FF0619"></path>
                <path d="M87.19623,73.55422 C85.19264,77.83335 81.1046,80.80736 80.14103,78.68679 C79.21596,76.65091 82.03837,70.54726 85.88092,68.92725 C88.63092,68.12663 88.29153,71.21494 87.19623,73.55425" id="Shape" fill="#FF0619"></path>
                <path d="M94.46781,65.05359 C93.5822007,67.5317535 92.4846109,69.928961 91.18723,72.21859 L90.71933,73.03336 C92.5090737,69.4983888 94.0790746,65.8563907 95.42039,62.12811 L95.43377,62.08363 L94.46777,65.05356" id="Shape" fill="#FF0619"></path>
                <path d="M57.57119,96.05082 C56.9515498,96.2209277 56.3210773,96.3487783 55.68412,96.43349 L55.54107,96.45297 C53.88335,96.6541 53.88335,96.6541 53.06137,96.72197 L52.78137,96.74423 L52.73995,96.74391 C54.1444461,95.7593533 55.7850329,95.1650905 57.49425,95.02178 C59.1211,94.89136 59.003,95.26798 58.92805,95.38652 C58.5477104,95.731832 58.0772318,95.962189 57.57123,96.05085" id="Shape" fill="#FF0619"></path>
                <path d="M47.24611,96.60663 C47.37255,96.85263 47.0297,96.83842 46.88328,96.83234 L46.64511,96.82071 C46.07193,96.78487 45.30797,96.73204 44.73561,96.68491 C42.07654,96.4215 41.69166,95.77091 41.92434,95.51456 C42.21988,95.189 43.22448,95.23214 43.55461,95.24632 C45.91768,95.45544 47.10342,96.32907 47.2461,96.60663" id="Shape" fill="#FF0619"></path>
                <path d="M37.78135,95.52243 C38.00963,95.58595 38.23254,95.64278 38.44391,95.69137 C37.69082,95.50691 36.68742,95.25731 35.93957,95.05264 C34.83078,94.71146 33.35957,94.23217 32.26544,93.84664 C31.8306995,93.7070069 31.4159622,93.5114338 31.03166,93.26484 C31.10784,93.22593 31.12156,93.21892 31.56095,93.33868 C33.66514,93.97925 35.65949,94.93211 37.78134,95.52241" id="Shape" fill="#FF0619"></path>
                <path d="M66.86792,93.49418 C66.00769,93.81518 64.85733,94.23465 63.98701,94.52718 C64.94255,94.20027 64.94255,94.20027 68.99559,92.5578 C69.09859,92.51714 69.20085,92.47449 69.30644,92.4408 L69.28229,92.45774 L66.86793,93.49421" id="Shape" fill="#FF0619"></path>
                <path d="M21.19747,87.0625 C21.9005166,87.6594733 22.5355337,88.332212 23.09099,89.0685 L23.05729,89.12028 C22.1299849,88.6269103 21.247103,88.0542384 20.41852,87.40867 L19.057,86.36281 C16.31191,84.16881 14.05652,81.85628 14.23044,81.41398 C14.3612,81.37504 14.42617,81.3955 14.8098,81.59641 C17.1028476,83.2177896 19.2411589,85.0475992 21.19746,87.0625" id="Shape" fill="#FF0619"></path>
                <path d="M36.08975,90.48142 C36.80942,92.12132 35.79861,93.14707 32.86135,92.02507 C28.96121,90.53524 26.21124,87.12849 28.19075,86.23898 C28.7541429,86.0535745 29.3554794,86.0147402 29.93804,86.12614 C32.5230091,86.6174948 34.7674861,88.2065467 36.08974,90.48144" id="Shape" fill="#FF0619"></path>
                <path d="M55.0791,91.087 C53.80897,94.104 47.68768,94.38429 46.46093,91.48161 C45.8195,89.96384 47.02251,87.76261 50.94957,87.57732 C54.37898,87.65789 55.76326,89.46183 55.07909,91.08701" id="Shape" fill="#FF0619"></path>
                <path d="M72.68636,88.56638 C70.30983,90.87271 65.20459,93.23998 65.12274,91.28856 C65.05868,89.76106 68.29403,86.41156 72.10174,85.47418 C74.75364,85.02932 74.27609,86.57271 73.57583,87.5548 C73.3066787,87.9150831 73.0092511,88.2533499 72.68637,88.56639" id="Shape" fill="#FF0619"></path>
                <path d="M81.31329,84.538 C80.01661,85.624 78.26312,87.04467 76.90559,88.05359 C79.98453,85.77559 82.45659,82.83596 85.32711,80.33059 C85.39204,80.27711 85.47957,80.20684 85.54769,80.1575 C85.53239,80.248 85.53239,80.248 85.40569,80.39495 C84.20782,81.66664 82.61953,83.37785 81.31332,84.53795" id="Shape" fill="#FF0619"></path>
                <path d="M49.54515,2.26293 C51.1187074,1.77176436 52.7738044,1.59634524 54.41536,1.74675 C53.8513443,1.88850175 53.2721147,1.96077112 52.69056,1.96195 C51.04833,2.10695 50.22487,2.20707 49.19479,2.35205 C49.29989,2.32531 49.43979,2.28882 49.54514,2.26293" id="Shape" fill="#FF0619"></path>
                <path d="M49.04984,2.22637 C48.7739,1.9909 48.48522,1.77073 48.21117,1.53297 C48.114746,1.45177381 48.025244,1.36269662 47.94359,1.26666 C47.82117,1.10954 47.87659,1.01304 48.09567,1.0019 C48.98309,0.9569 49.12079,1.86445 49.19477,2.35204 C49.15128,2.31434 49.09359,2.26373 49.04977,2.22637" id="Shape" fill="#FF0619"></path>
                <path d="M49.30809,2.22439 C50.52283,0.89471 51.5704,1.06751 51.59836,1.16358 C51.53455,1.27285 51.35863,1.35816 50.56672,1.70785 C49.92015,1.99319 49.62094,2.13718 49.19478,2.35205 C49.22878,2.31375 49.27354,2.2622 49.30808,2.22439" id="Shape" fill="#FF0619"></path>
                <path d="M48.81616,2.27078 C47.72246,2.04322 46.70991,1.88349 46.10491,1.78804 C44.9847,1.61144 44.71919,1.56317 44.68336,1.49426 C44.69249,1.48963 46.09091,1.2137 49.19479,2.35205 C49.0812,2.32767 48.92989,2.29447 48.81615,2.27078" id="Shape" fill="#FF0619"></path>
                <path d="M48.71484,2.341 C47.20559,2.3145 45.95132,2.34785 44.73833,2.38013 C44.1463564,2.42437893 43.5518415,2.42262031 42.96014,2.37487 C43.00695,2.31757 44.76968,1.91704 49.19479,2.35204 C49.05079,2.34873 48.85879,2.34358 48.71479,2.34104" id="Shape" fill="#FF0619"></path>
                <path d="M66.34306,3.79809 C67.17718,4.07742 67.8799,4.36083 68.11083,4.45398 C66.660034,3.89335236 65.1746649,3.42666476 63.66393,3.05681 C64.5698247,3.25484628 65.4642021,3.50231301 66.34305,3.7981" id="Shape" fill="#FF0619"></path>
                <path d="M58.90465,1.445 C59.78408,1.64285 60.95358,1.92092 61.82641,2.14614 C60.15953,1.69059 58.44383,1.48759 56.75209,1.15997 C56.6699315,1.14628608 56.5897138,1.12278446 56.51316,1.08997 L56.51956,1.06162 C56.6893497,1.0435537 56.8609815,1.05480414 57.02696,1.09488 C57.59083,1.19683 58.34422,1.32553 58.90464,1.44497" id="Shape" fill="#FF0619"></path>
                <path d="M51.57316,0.5044 L51.60104,0.50585 C51.24804,0.48949 50.89471,0.48168 50.54151,0.47109 C50.28051,0.46229 50.01967,0.4495 49.75856,0.44543 C50.30306,0.4588 51.0291,0.47858 51.57315,0.50443" id="Shape" fill="#FF0619"></path>
                <path d="M42.67456,0.87224 L43.74791,0.74 L43.77397,0.73888 C43.6280542,0.801263021 43.4719516,0.8364089 43.31338,0.84258 C40.02423,1.29205 40.02423,1.29205 39.32238,1.45088 C41.43525,1.04645 41.65611,1.00418 42.67452,0.87225" id="Shape" fill="#FF0619"></path>
                <path d="M31.25744,4.22121 C30.06152,4.61843 28.8979,5.10595 27.69829,5.49282 C27.74865,5.43507 27.76949,5.41116 28.71155,4.96989 L30.81434,4.04608 L31.01776,3.96308 C36.13165,1.90264 38.14369,2.19064 38.1579,2.19602 L38.10619,2.26035 C37.6622979,2.4269581 37.2056152,2.55726257 36.74064,2.64998 C35.41021,2.9864 33.58814,3.44712 31.25745,4.22119" id="Shape" fill="#FF0619"></path>
                <path d="M30.32931,7.19524 C28.37519,8.09941 24.73787,9.78238 24.97906,8.92824 C25.11799,8.43624 26.98466,7.0415 29.99648,5.80638 C33.10948,4.52976 36.33311,3.9216 36.59861,4.16317 C36.54338,4.31997 36.54338,4.31997 30.3293,7.19523" id="Shape" fill="#FF0619"></path>
                <path d="M0.98,45.64195 C0.95217,46.11157 0.92591,46.55512 0.89987,47.51585 L0.98,45.64195" id="Shape" fill="#FF0619"></path>
                <path d="M9.116,56.71313 C8.94084,60.38101 7.34174,62.02707 5.624,60.30759 C2.658,57.33846 2.46895,48.15641 5.36791,47.87113 C5.67134166,47.8624049 5.97145759,47.93615 6.23629,48.08451 C8.00129,49.13206 9.2931,53.00283 9.11594,56.71314" id="Shape" fill="#FF0619"></path>
                <path d="M6.18729,34.48719 C4.89738,37.42157 3.57597,38.99406 3.11352,38.14494 C2.048,36.18837 6.15627,26.04489 7.79,26.59863 C7.87630581,26.6445978 7.94872485,26.7128422 7.99973,26.79627 C8.49994,28.11927 7.24102,32.09014 6.18732,34.48719" id="Shape" fill="#FF0619"></path>
                <path d="M14.69882,15.97484 C13.7141034,17.0319352 12.6244302,17.9861415 11.44662,18.82273 C11.36556,18.56942 12.57695,17.17745 13.30627,16.37024 L15.72568,13.87732 C18.61186,11.13732 19.99603,10.39247 20.21418,10.46101 C20.2156006,10.509644 20.2052033,10.5578968 20.18388,10.60163 C19.83888,11.11744 19.45074,11.48425 14.69881,15.97484" id="Shape" fill="#FF0619"></path>
                <path d="M5.77431,69.634 C6.08251,70.31794 6.67048,71.59142 7.14553,72.4361 C6.30185,70.80786 5.20887,68.6183 4.47068,66.9396 C3.92815,65.4524 3.20086,63.46903 2.74119,61.95417 C3.62195604,64.5636681 4.6342854,67.1268963 5.77429,69.63401" id="Shape" fill="#FF0619"></path>
            </g>
        </g>
    </g>
</svg>
