<svg width="77px" height="74px" viewBox="0 0 77 74" version="1.1" xmlns="http://www.w3.org/2000/svg" xmlns:xlink="http://www.w3.org/1999/xlink">
    <g id="-" stroke="none" stroke-width="1" fill="none" fill-rule="evenodd">
        <g id="1366х900-main-copy" transform="translate(-1129.000000, -248.000000)" fill-rule="nonzero">
            <g id="hv_planets_Artboard-59-copy-4" transform="translate(1129.000000, 248.000000)">
                <path d="M23.5008,33.16059 C17.4534577,34.7962047 11.1448795,35.2349714 4.92934,34.45225 C3.39315,34.26278 1.85434,33.99377 0.31989,33.65565 C-0.0127310484,37.2557293 0.213414973,40.8855952 0.99031,44.41655 C3.75461775,43.9790645 6.46706282,43.2606159 9.08549,42.27237 C14.4533835,40.233281 19.3558678,37.1344674 23.5008,33.16059 Z" id="Shape" fill="#FFDD00"></path>
                <path d="M45.31557,10.0692 C40.4413081,12.1271981 36.0345919,15.1515138 32.36141,18.9596 C28.4510386,23.0244781 25.4330299,27.861475 23.5008,33.1606 C28.2394348,29.1562664 33.7286398,26.1365331 39.64765,24.27786 C46.0537078,22.2676298 52.7890258,21.5198033 59.48002,22.07586 C64.8530535,22.5181996 70.1315943,23.7497885 75.14559,25.73095 C72.6259146,18.2472508 67.770605,11.7699538 61.29414,7.25222 C60.7285,7.22287 60.17214,7.16422 59.59814,7.16333 C54.6911508,7.16993332 49.8350451,8.1579356 45.31557,10.0692 Z" id="Shape" fill="#FFDD00"></path>
                <path d="M17.43508,17.67028 C18.3416369,23.2037912 20.4088193,28.4828504 23.5008,33.16059 C23.18163,27.1502503 24.141973,21.1406226 26.31833,15.52907 C28.5431402,9.8323849 31.8515115,4.62117503 36.06025,0.184 C29.449735,0.59539888 23.0475579,2.65605537 17.43818,6.17785 C16.8265033,9.98416013 16.8254568,13.8636404 17.43508,17.67028 Z" id="Shape" fill="#FFDD00"></path>
                <path d="M21.94952,49.63783 C23.6348369,44.3187069 24.1637456,38.7007946 23.5008,33.16059 C21.044547,38.7385183 17.4612858,43.7482073 12.97613,47.87493 C10.424957,50.2276125 7.62906156,52.3001935 4.63631,54.05719 C6.79286391,57.9549201 9.63541511,61.4312768 13.02719,64.31899 C13.45297,63.88922 13.89829,63.48688 14.30498,63.03199 C17.7643329,59.1528159 20.3689141,54.5892742 21.94952,49.63783 Z" id="Shape" fill="#FFDD00"></path>
                <path d="M42.14773,58.672 C41.1095661,53.5972055 39.0082426,48.7998672 35.98211,44.59584 C32.6442528,39.9735075 28.3969054,36.0821308 23.5008,33.16059 C26.4966655,38.3993846 28.3528828,44.2115963 28.94805,50.21709 C29.5696884,56.6364639 28.8295613,63.1147643 26.77605,69.22851 C26.5140967,70.0151167 26.23039,70.79839 25.92493,71.57833 C30.9903306,73.2750654 36.3459126,73.9327346 41.67134,73.512 C41.74948,73.22343 41.85648,72.95017 41.92708,72.65735 C43.0121079,68.0664984 43.0873921,63.2947955 42.14773,58.672 Z" id="Shape" fill="#FFDD00"></path>
                <path d="M67.22535,43.98635 C64.1171949,40.2809296 60.2783299,37.2562521 55.94857,35.10127 C51.1626465,32.7153142 45.9511864,31.3018505 40.61557,30.94262 C34.8204259,30.5530995 29.0052366,31.3067242 23.50083,33.16062 C29.6482862,34.1848239 35.5331371,36.4123253 40.818,39.71542 C46.3987434,43.2087239 51.2159198,47.7938756 54.98024,53.19552 C57.7885657,57.2358922 59.9820421,61.6704835 61.48906,66.35452 C66.1260006,63.0792073 69.946977,58.7807042 72.65617,53.7918 C71.4717209,50.2138983 69.6299147,46.8884818 67.22535,43.98635 Z" id="Shape" fill="#FFDD00"></path>
                <path d="M23.5008,33.16059 C18.4413475,29.698504 14.1422964,25.2395553 10.8672,20.0571 C9.77848382,18.3257787 8.8078002,16.5229861 7.96176,14.661 C5.78049328,17.402221 4.00721271,20.4445479 2.697,23.69348 C2.5385,24.0888 2.43283,24.48987 2.28987,24.8871 C3.80708976,26.0537853 5.40663163,27.1093105 7.076,28.04543 C12.1599299,30.8172022 17.7420589,32.5556394 23.5008,33.16059 Z" id="Shape" fill="#FFDD00"></path>
                <path d="M40.818,39.71542 C35.5331303,36.412311 29.6482688,34.1847993 23.5008,33.16059 C28.3969025,36.082122 32.6442497,39.9734884 35.98211,44.59581 C39.0082465,48.7998461 41.1095701,53.597195 42.14773,58.672 C43.0873903,63.2947995 43.0121027,68.066506 41.92707,72.65736 C41.85648,72.95018 41.74948,73.22344 41.67133,73.51201 C48.803056,72.9627218 55.6521906,70.4890461 61.48905,66.35452 C59.9820321,61.6704835 57.7885557,57.2358922 54.98023,53.19552 C51.2159127,47.7938766 46.3987398,43.2087249 40.818,39.71542 Z" id="Shape" fill="#5A0BB5"></path>
                <path d="M39.64765,24.27785 C33.7286398,26.1365231 28.2394348,29.1562564 23.5008,33.16059 C29.0052066,31.3066942 34.8203959,30.5530695 40.61554,30.94259 C45.9511564,31.3018205 51.1626165,32.7152842 55.94854,35.10124 C60.2782999,37.2562221 64.1171649,40.2808996 67.22532,43.98632 C69.6298882,46.888451 71.4716979,50.2138676 72.65615,53.79177 C73.3160603,52.5794425 73.9063342,51.330487 74.4241,50.05098 C77.5504059,42.2883048 77.806218,33.6652307 75.14558,25.73088 C70.1315796,23.7497278 64.8530354,22.5181491 59.48,22.07582 C52.7890105,21.5197756 46.0536995,22.2676122 39.64765,24.27785 Z" id="Shape" fill="#5A0BB5"></path>
                <path d="M23.5008,33.16059 C25.4330299,27.861465 28.4510386,23.0244681 32.36141,18.95959 C36.0345919,15.1515038 40.4413081,12.1271881 45.31557,10.06919 C49.8350392,8.15791318 54.6911414,7.16989731 59.59813,7.16328 C60.1722,7.16413 60.72852,7.22282 61.29413,7.25217 C58.5218237,5.28857083 55.5041271,3.69677285 52.31813,2.51744 C47.1204662,0.615939117 41.5829084,-0.178848321 36.06025,0.184 C31.8515115,4.62117503 28.5431402,9.8323849 26.31833,15.52907 C24.141973,21.1406226 23.18163,27.1502503 23.5008,33.16059 Z" id="Shape" fill="#5A0BB5"></path>
                <path d="M23.5008,33.16059 C20.4088157,28.4828513 18.34163,23.203792 17.43507,17.67028 C16.8254501,13.8636399 16.8265,9.9841596 17.43818,6.17785 C13.8205745,8.44693116 10.615932,11.3156794 7.96176,14.661 C8.8078002,16.5229861 9.77848382,18.3257787 10.8672,20.0571 C14.1422964,25.2395553 18.4413475,29.698504 23.5008,33.16059 Z" id="Shape" fill="#5A0BB5"></path>
                <path d="M23.5008,33.16059 C17.7420589,32.5556394 12.1599299,30.8172022 7.076,28.04543 C5.40662133,27.1093118 3.80706939,26.0537865 2.28984,24.8871 C1.2632238,27.7143596 0.601220972,30.660961 0.31984,33.65565 C1.85425,33.99377 3.39311,34.26278 4.92929,34.45225 C11.144846,35.234978 17.4534417,34.7962112 23.5008,33.16059 Z" id="Shape" fill="#5A0BB5"></path>
                <path d="M23.5008,33.16059 C19.3558669,37.1344638 14.4533827,40.233274 9.08549,42.27236 C6.46706282,43.2606059 3.75461775,43.9790545 0.99031,44.41654 C1.73621603,47.7885478 2.9641699,51.0354653 4.63631,54.05718 C7.62906156,52.3001835 10.424957,50.2276025 12.97613,47.87492 C17.4612846,43.7482002 21.0445458,38.7385147 23.5008,33.16059 Z" id="Shape" fill="#5A0BB5"></path>
                <path d="M28.94806,50.21709 C28.3528928,44.2115963 26.4966755,38.3993846 23.50081,33.16059 C24.1637541,38.7007913 23.6348455,44.3187 21.94953,49.63782 C20.3689297,54.5892704 17.7643518,59.1528191 14.305,63.032 C13.89831,63.48687 13.453,63.88921 13.02721,64.319 C16.5104898,67.3035503 20.4982053,69.6428532 24.803,71.227 C25.17462,71.36352 25.552,71.45348 25.925,71.5783 C26.23046,70.7989267 26.5141667,70.0156533 26.77612,69.22848 C28.8296068,63.1147394 29.5697135,56.6364497 28.94806,50.21709 Z" id="Shape" fill="#5A0BB5"></path>
            </g>
        </g>
    </g>
</svg>
