<svg width="59px" height="59px" viewBox="0 0 59 59" version="1.1" xmlns="http://www.w3.org/2000/svg" xmlns:xlink="http://www.w3.org/1999/xlink">
    <g id="-" stroke="none" stroke-width="1" fill="none" fill-rule="evenodd">
        <g id="1366х900-main-copy" transform="translate(-477.000000, -175.000000)" fill-rule="nonzero">
            <g id="hv_planets_Artboard-59-copy" transform="translate(477.000000, 175.000000)">
                <path d="M27.05522,6.86714 C25.179948,10.0723921 23.9921077,13.6327696 23.56722,17.32191 C23.1038675,21.3472449 23.4733483,25.4248637 24.6527,29.30135 C25.9356886,33.5007336 28.0656694,37.3926369 30.91119,40.73687 C30.0030792,36.0912004 30.0509697,31.3092206 31.05194,26.68267 C32.1307054,21.7239425 34.2017977,17.0348043 37.14052,12.89758 C39.3677056,9.76395363 42.0355457,6.9682114 45.06152,4.59683 C41.3578663,2.23910861 37.1638858,0.759992129 32.80058,0.27269 C30.5006573,2.10345974 28.553716,4.3381339 27.05522,6.86714 Z" id="Shape" fill="#FFDD00"></path>
                <path d="M30.91118,40.73687 C33.7452859,44.5283174 35.7770485,48.8575314 36.88246,53.46028 C37.15793,54.59636 37.37646,55.75673 37.54232,56.93353 C40.2785709,56.152638 42.8840744,54.9707813 45.27402,53.42643 C44.2037601,51.5976184 42.9426723,49.8873984 41.51189,48.32443 C38.5337729,45.0976092 34.9259926,42.5153058 30.91118,40.73687 Z" id="Shape" fill="#FFDD00"></path>
                <path d="M2.02664,22.63434 C3.36343972,26.0988967 5.40642913,29.2474352 8.02574,31.87981 C10.8840692,34.7517425 14.30244,37.0052184 18.06847,38.50023 C22.1516805,40.1151127 26.5224534,40.8763067 30.91119,40.73686 C26.7128223,38.5504435 23.0040342,35.5314185 20.01119,31.86405 C16.8067507,27.9290234 14.4318494,23.3861682 13.0295,18.50905 C11.9011377,14.5876056 11.3797848,10.516525 11.48356,6.43729 C6.69986838,10.2630547 3.25149706,15.5062595 1.63356,21.41409 C1.7649,21.821 1.87214,22.22951 2.02664,22.63434 Z" id="Shape" fill="#FFDD00"></path>
                <path d="M44.63863,20.39586 C41.2027572,22.5434254 38.2452284,25.374621 35.94981,28.71353 C33.4666238,32.3350601 31.7518165,36.4269848 30.91118,40.73686 C33.9770774,37.1302349 37.7457126,34.1861385 41.98711,32.08423 C46.5365282,29.8358912 51.4939159,28.5315361 56.56075,28.24971 C57.2102233,28.21201 57.86316,28.1907867 58.51956,28.18604 C58.4013922,24.1493644 57.4356622,20.1826552 55.68506,16.54341 C55.45181,16.56955 55.22192,16.57141 54.98733,16.60441 C51.3121645,17.1369071 47.7879487,18.428073 44.63863,20.39586 Z" id="Shape" fill="#FFDD00"></path>
                <path d="M30.91118,40.73687 C26.5841988,42.6560098 21.9115509,43.6733702 17.17837,43.72687 C12.4185867,43.772523 7.6935596,42.9123798 3.25521,41.1923 C5.36205649,45.755331 8.61599396,49.694152 12.69941,52.6243 C15.666462,51.9806147 18.5178431,50.8876883 21.15499,49.3833 C24.963577,47.1979032 28.2839354,44.2552333 30.91118,40.73687 Z" id="Shape" fill="#FFDD00"></path>
                <path d="M30.91118,40.73687 C29.7139793,45.3165682 27.5960013,49.6042365 24.68654,53.33813 C23.7046774,54.596994 22.6409155,55.7897789 21.50217,56.90873 C24.1234589,57.6743262 26.8398695,58.0652691 29.57067,58.06994 C29.91585,58.06994 30.25098,58.03023 30.59314,58.01833 C31.0279436,56.6234354 31.3605999,55.1987318 31.58847,53.75552 C32.2543843,49.4152658 32.0238803,44.9845925 30.91118,40.73687 Z" id="Shape" fill="#FFDD00"></path>
                <path d="M43.453,37.17967 C39.0733024,37.4961826 34.8049191,38.7068166 30.91123,40.73687 C35.6425025,40.8850775 40.2939556,41.9958307 44.58171,44.00134 C46.9920645,45.1290101 49.2730781,46.5146403 51.38478,48.13395 C53.6563479,45.5359439 55.4448261,42.5525166 56.6657,39.32465 C56.23439,39.14565 55.81817,38.94565 55.37345,38.78711 C51.5521742,37.4397901 47.4946626,36.8926457 43.453,37.17967 Z" id="Shape" fill="#FFDD00"></path>
                <path d="M37.14051,12.89758 C34.2017877,17.0348043 32.1306954,21.7239425 31.05193,26.68267 C30.0509597,31.3092206 30.0030692,36.0912004 30.91118,40.73687 C31.7518165,36.4269948 33.4666238,32.3350701 35.94981,28.71354 C38.2452284,25.374631 41.2027572,22.5434354 44.63863,20.39587 C47.7879487,18.428083 51.3121645,17.1369171 54.98733,16.60442 C55.22192,16.57142 55.45182,16.56957 55.68506,16.54342 C53.3300016,11.6466243 49.6496476,7.50790542 45.06156,4.59683 C42.035568,6.96820775 39.3677109,9.76395015 37.14051,12.89758 Z" id="Shape" fill="#FF0619"></path>
                <path d="M13.02951,18.5091 C14.4318594,23.3862182 16.8067607,27.9290734 20.0112,31.8641 C23.0040442,35.5314685 26.7128323,38.5504935 30.9112,40.73691 C28.0656711,37.3926659 25.9356866,33.5007486 24.6527,29.30135 C23.4733531,25.4248662 23.1038756,21.3472509 23.56723,17.32192 C23.9921177,13.6327796 25.179958,10.0724021 27.05523,6.86715 C28.5537409,4.33813967 30.5006994,2.10346523 32.80064,0.2727 C31.7283291,0.149677024 30.6500283,0.0861297356 29.57069,0.08235 C22.9935225,0.0770700979 16.6119795,2.31925839 11.48358,6.43735 C11.3798026,10.5165812 11.901152,14.5876583 13.02951,18.5091 Z" id="Shape" fill="#FF0619"></path>
                <path d="M30.91118,40.73687 C26.5224434,40.8763167 22.1516705,40.1151227 18.06846,38.50024 C14.30243,37.0052284 10.8840592,34.7517525 8.02573,31.87982 C5.40641913,29.2474452 3.36342972,26.0989067 2.02663,22.63435 C1.87214,22.22952 1.7649,21.821 1.63353,21.41415 C-0.205848405,27.9889178 0.369421971,35.0049652 3.25521,41.1923 C7.69356027,42.9123764 12.4185873,43.7725162 17.17837,43.72686 C21.9115502,43.6733633 26.5841981,42.6560063 30.91118,40.73687 Z" id="Shape" fill="#FF0619"></path>
                <path d="M24.68655,53.33812 C27.5960113,49.6042265 29.7139893,45.3165582 30.91119,40.73686 C28.2839425,44.2552243 24.9635806,47.1978943 21.15499,49.38329 C18.5178431,50.8876783 15.666462,51.9806047 12.69941,52.62429 C15.3680689,54.5436401 18.3452067,55.9926508 21.50218,56.90871 C22.6409251,55.7897621 23.7046871,54.5969806 24.68655,53.33812 Z" id="Shape" fill="#FF0619"></path>
                <path d="M30.91118,40.73687 C32.0238817,44.9845957 32.2543857,49.4152725 31.58847,53.75553 C31.3605999,55.1987418 31.0279436,56.6234454 30.59314,58.01834 C32.9450103,57.9404851 35.2786181,57.5761978 37.54232,56.93354 C37.37643,55.75674 37.15793,54.59637 36.88246,53.46029 C35.7770498,48.8575379 33.7452871,44.5283204 30.91118,40.73687 Z" id="Shape" fill="#FF0619"></path>
                <path d="M30.91118,40.73687 C34.9259997,42.5153164 38.5337838,45.0976337 41.5119,48.32447 C42.9426823,49.8874384 44.2037701,51.5976584 45.27403,53.42647 C47.5471628,51.9550963 49.6038894,50.1737645 51.38473,48.13399 C49.2730281,46.5146803 46.9920145,45.1290501 44.58166,44.00138 C40.2939085,41.9958569 35.6424553,40.8850901 30.91118,40.73687 Z" id="Shape" fill="#FF0619"></path>
                <path d="M41.98711,32.08424 C37.7457126,34.1861485 33.9770774,37.1302449 30.91118,40.73687 C34.8048843,38.7068101 39.0732853,37.4961759 43.453,37.17967 C47.4946453,36.8926495 51.5521392,37.4397903 55.3734,38.7871 C55.81811,38.94561 56.23434,39.14569 56.66565,39.32464 C57.915222,36.0519942 58.5586525,32.5792253 58.56448,29.07614 C58.56448,28.7757 58.52829,28.48431 58.51957,28.18604 C57.86339,28.1909 57.2104533,28.2121233 56.56076,28.24971 C51.4939218,28.5315379 46.5365306,29.8358965 41.98711,32.08424 Z" id="Shape" fill="#FF0619"></path>
            </g>
        </g>
    </g>
</svg>
