<svg width="108px" height="109px" viewBox="0 0 108 109" version="1.1" xmlns="http://www.w3.org/2000/svg" xmlns:xlink="http://www.w3.org/1999/xlink">
    <g id="-" stroke="none" stroke-width="1" fill="none" fill-rule="evenodd">
        <g id="1366х900-main-copy" transform="translate(-798.000000, -81.000000)" fill-rule="nonzero">
            <g id="hv_planets_Artboard-59-copy-2" transform="translate(798.000000, 81.000000)">
                <path d="M94.975,37.48267 C94.9660492,50.925794 88.7235167,63.6047713 78.0742721,71.8091147 C67.4250274,80.0134581 53.573163,82.8155162 40.57241,79.39527 C57.1020625,96.0399582 83.8728816,96.5171663 100.98525,80.47217 C114.283026,56.6935311 107.714702,26.7284059 85.68962,10.6925 C91.7147697,18.3213175 94.9867042,27.7614998 94.975,37.48267 Z" id="Shape" fill="#00FFA3"></path>
                <path d="M44.86785,89.68945 C42.999211,86.4571018 41.5554864,82.9971354 40.57244,79.39526 C38.1225353,88.4272078 38.6599537,98.0093322 42.10444,106.71069 C49.21906,108.328375 56.5891857,108.475341 63.76264,107.14257 C55.8358143,103.382072 49.2443515,97.2935372 44.86785,89.68945 Z" id="Shape" fill="#00FFA3"></path>
                <path d="M47.33977,70.52808 C45.4747956,73.7625942 43.2002377,76.7429332 40.57244,79.39527 C57.3877593,74.9526417 69.9199619,60.8902684 72.4046531,43.6763722 C74.8893442,26.4624761 66.8454251,9.43010066 51.97283,0.41357 C42.6170705,0.747746573 33.512505,3.52947303 25.56755,8.4812 C37.3330936,13.0837379 46.5066919,22.5880706 50.6898047,34.5091838 C54.8729175,46.4302969 53.6496247,59.5828936 47.33977,70.52808 Z" id="Shape" fill="#00FFA3"></path>
                <path d="M40.57244,79.39526 C31.6299375,81.7625365 23.6788537,86.9276028 17.881,94.13574 C21.1829317,97.1212781 24.8415865,99.6867883 28.77358,101.7738 C30.3996931,93.309078 34.5067691,85.5192916 40.57244,79.39526 Z" id="Shape" fill="#00FFA3"></path>
                <path d="M36.277,69.10107 C38.145618,72.3334286 39.5893414,75.7933922 40.57241,79.39526 C43.6664907,67.9875006 41.9710756,55.8111307 35.8783121,45.6825305 C29.7855486,35.5539303 19.8232014,28.3504549 8.29555,25.73826 C4.17454614,32.3375179 1.54272877,39.7563127 0.58364,47.47726 C15.3993991,48.0972018 28.8672835,56.2563377 36.277,69.10107 Z" id="Shape" fill="#00FFA3"></path>
                <path d="M40.57244,79.39526 C30.432624,69.1992512 15.9038239,64.6824988 1.77044,67.33239 C3.19287986,72.9932935 5.53161031,78.3834417 8.69402,83.28939 C18.4328439,77.9676428 29.838934,76.5743098 40.57244,79.39522 L40.57244,79.39526 Z" id="Shape" fill="#00FFA3"></path>
                <path d="M72.84929,37.48267 C72.8474231,57.1590766 59.595535,74.3671037 40.57243,79.39527 C58.5900967,84.1550577 77.6332172,76.8624184 87.862764,61.2852471 C98.0923107,45.7080758 97.2172177,25.3351222 85.68962,10.6925 C76.4907145,3.96610386 65.3869207,0.347565865 53.99113,0.3625 C53.31413,0.3625 52.64372,0.38887 51.97282,0.4135 C64.9388926,8.26541344 72.8566077,22.3244534 72.84929,37.48267 Z" id="Shape" fill="#5A0BB5"></path>
                <path d="M40.57244,79.39526 C50.8504986,69.0238025 55.2194337,54.1764225 52.1967748,39.891145 C49.1741158,25.6058676 39.1656846,13.8006318 25.56755,8.4812 C18.5705016,12.8423547 12.6627499,18.7450031 8.29555,25.73828 C19.8232014,28.3504749 29.7855486,35.5539503 35.8783121,45.6825505 C41.9710756,55.8111507 43.6664907,67.9875206 40.57241,79.39528 L40.57244,79.39526 Z" id="Shape" fill="#5A0BB5"></path>
                <path d="M40.57244,79.39526 C35.6051745,61.1899085 19.4372111,48.285059 0.58367,47.47726 C-0.265901453,54.1116055 0.136650536,60.8464488 1.77044,67.33236 C15.903829,64.6824765 30.4326298,69.1992403 40.57244,79.39526 Z" id="Shape" fill="#5A0BB5"></path>
                <path d="M40.57244,79.39526 C29.8389278,76.5743445 18.4328295,77.9676776 8.694,83.28943 C11.2660969,87.2930938 14.3550732,90.9399856 17.881,94.13574 C23.6788537,86.9276028 31.6299375,81.7625365 40.57244,79.39526 Z" id="Shape" fill="#5A0BB5"></path>
                <path d="M40.57244,79.39526 C34.5067991,85.5192916 30.3997231,93.309078 28.77361,101.7738 C32.9776494,104.005483 37.4608727,105.665786 42.10442,106.71069 C38.6599403,98.00933 38.1225289,88.4272057 40.57244,79.39526 Z" id="Shape" fill="#5A0BB5"></path>
                <path d="M40.57244,79.39526 C43.8973172,91.5778402 52.3637153,101.707976 63.76263,107.14257 C79.5184466,104.228952 93.1602811,94.4544403 100.98529,80.47216 C83.8729216,96.5171563 57.1021025,96.0399482 40.57244,79.39526 Z" id="Shape" fill="#5A0BB5"></path>
            </g>
        </g>
    </g>
</svg>
