<svg width="398px" height="241px" viewBox="0 0 398 241" version="1.1" xmlns="http://www.w3.org/2000/svg" xmlns:xlink="http://www.w3.org/1999/xlink">
    <g id="-" stroke="none" stroke-width="1" fill="none" fill-rule="evenodd">
        <g id="1366х900-main-copy" transform="translate(-814.000000, -186.000000)" fill-rule="nonzero">
            <g id="hv_planets_Artboard-56" transform="translate(780.000000, 136.000000)">
                <ellipse id="Oval" fill="#FF0619" transform="translate(233.143520, 170.587423) rotate(-23.228380) translate(-233.143520, -170.587423) " cx="233.14352" cy="170.587423" rx="212.34204" ry="94.07275"></ellipse>
                <ellipse id="Oval" fill="#0512AF" transform="translate(218.639436, 136.792952) rotate(-23.228390) translate(-218.639436, -136.792952) " cx="218.639436" cy="136.792952" rx="74.18324" ry="16.42265"></ellipse>
                <path d="M357.34428,85.44989 C346.25184,59.60463 276.48788,64.73533 201.52218,96.90971 C126.5561,129.08409 74.7764,176.11842 85.86883,201.96378 C96.96166,227.80904 166.72563,222.67834 241.69172,190.50396 C316.65741,158.32958 368.43711,111.29525 357.34428,85.44989 Z M232.553,169.2112 C172.80339,194.85482 118.56607,202.127 111.41024,185.454 C104.25441,168.781 146.89024,134.47654 206.63946,108.83293 C266.38868,83.18932 320.626,75.91714 327.78181,92.59013 C334.93762,109.26312 292.30219,143.56759 232.553,169.2112 Z" id="Shape" fill="#0512AF"></path>
                <path d="M428.27313,86.84029 C407.78231,39.09684 303.80857,37.888 196.04147,84.14018 C88.27437,130.39236 17.52309,206.59106 38.01391,254.3345 C58.50512,302.07795 162.47847,303.28683 270.24557,257.03461 C378.01267,210.78239 448.764,134.58374 428.27313,86.84029 Z M255.48485,222.64243 C162.2851,262.64268 73.89405,265.15811 58.05842,228.26086 C42.22242,191.36351 104.93827,129.02578 198.13842,89.02563 C291.33817,49.02538 379.72922,46.51 395.56524,83.4072 C411.40087,120.30455 348.685,182.64228 255.48485,222.64243 Z" id="Shape" fill="#0512AF"></path>
            </g>
        </g>
    </g>
</svg>
