<svg width="137px" height="67px" viewBox="0 0 137 67" version="1.1" xmlns="http://www.w3.org/2000/svg" xmlns:xlink="http://www.w3.org/1999/xlink">
    <g id="-" stroke="none" stroke-width="1" fill="none" fill-rule="evenodd">
        <g id="1366х900-main-copy" transform="translate(-43.000000, -297.000000)" fill-rule="nonzero">
            <g id="hv_planets_Artboard-59" transform="translate(43.000000, 297.000000)">
                <path d="M98.361,4.83765 C94.60319,8.37757 90.11027,10.31714 83.67936,6.78809 C73.4809,1.19141 71.59882,20.075 59.80707,16.98547 C51.27387,14.74975 44.27338,8.89685 37.90888,4.0813 C27.63007,6.89319 18.81049,10.99414 12.35908,15.605 C14.63496,17.4236 17.83222,19.43288 20.98237,19.54543 C35.03217,20.04787 33.80464,11.27199 41.69404,13.81789 C49.58344,16.36379 56.41718,34.64724 72.10761,36.14489 C87.16669,37.58228 88.528,12.13513 100.434,11.363 C114.48966,10.45162 120.09855,39.24728 133.89543,42.20309 C135.418344,40.0577145 136.26221,37.5045938 136.31779,34.87423 C136.0766,24.87354 120.82709,11.71216 98.361,4.83765 Z" id="Shape" fill="#5A0BB5"></path>
                <path d="M99.84125,34.50757 C93.75604,32.48828 86.40717,42.62012 78.34882,44.91284 C70.29047,47.20556 60.53782,37.75036 51.34223,36.04321 C38.04926,33.57544 33.551,46.084 22.15693,46.11938 C16.084958,46.2819194 10.0811447,44.8073547 4.77534,41.85038 C8.79292,47.1757 15.69673,52.49503 24.65134,56.85551 C25.8329368,55.7353666 26.9565537,54.5556066 28.0178,53.32084 C34.934,45.34106 42.27094,50.032 42.27094,50.032 C42.27094,50.032 38.71161,47.58156 48.74894,53.88039 C55.96964,58.41139 62.17082,54.99318 69.76212,52.64284 C81.02457,49.15578 88.91617,56.86769 94.53458,64.1089 C101.356738,62.5642468 107.991655,60.2856756 114.3234,57.313 C109.17939,50.03833 104.97211,36.21021 99.84125,34.50757 Z" id="Shape" fill="#5A0BB5"></path>
                <path d="M83.67939,6.78809 C90.1103,10.31714 94.60322,8.37757 98.36103,4.83765 C88.9083039,1.96313334 79.1033505,0.410162374 69.225,0.2229 C58.6558891,0.0128546942 48.1108821,1.31208343 37.90884,4.0813 C44.27334,8.89685 51.27384,14.74976 59.80703,16.98547 C71.59882,20.075 73.4809,1.19141 83.67939,6.78809 Z" id="Shape" fill="#FF7208"></path>
                <path d="M100.434,11.363 C88.528,12.13509 87.16667,37.58224 72.10758,36.14486 C56.41718,34.64722 49.58344,16.36377 41.694,13.81787 C33.80456,11.27197 35.03213,20.04787 20.98233,19.54541 C17.83218,19.43286 14.63492,17.42358 12.35904,15.60498 C4.97574,20.88171 0.68204,26.81543 0.82437,32.21533 C0.90494,35.27698 2.29605,38.56396 4.7753,41.85033 C10.0811047,44.8073047 16.084918,46.2818694 22.15689,46.11933 C33.55089,46.08393 38.04922,33.57538 51.34219,36.04316 C60.53775,37.75031 70.29043,47.20551 78.34878,44.91279 C86.40713,42.62007 93.756,32.48828 99.84125,34.50757 C104.97211,36.21021 109.17938,50.03833 114.32343,57.31299 C123.56171,52.91599 130.46625,47.51074 133.89543,42.20313 C120.09858,39.24731 114.48969,10.45166 100.434,11.363 Z" id="Shape" fill="#FF7208"></path>
                <path d="M69.76215,52.64282 C62.17084,54.99316 55.96967,58.41137 48.74897,53.88037 C38.71162,47.58154 42.27097,50.03198 42.27097,50.03198 C42.27097,50.03198 34.934,45.34106 28.01777,53.3208 C26.9565237,54.5555666 25.8329068,55.7353266 24.65131,56.85547 C38.1923404,63.245465 52.9455908,66.6591993 67.91718,66.8667 C76.8690507,67.0394013 85.808299,66.1132132 94.53461,64.10889 C88.9162,56.86768 81.0246,49.15576 69.76215,52.64282 Z" id="Shape" fill="#FF7208"></path>
            </g>
        </g>
    </g>
</svg>
