<svg width="584px" height="136px" viewBox="0 0 584 136" version="1.1" xmlns="http://www.w3.org/2000/svg" xmlns:xlink="http://www.w3.org/1999/xlink">
    <g id="-" stroke="none" stroke-width="1" fill="none" fill-rule="evenodd">
        <g id="1366х900-main-copy" transform="translate(-37.000000, -732.000000)" fill-rule="nonzero">
            <g id="hv_planets_Artboard-57" transform="translate(37.000000, 732.000000)">
                <path d="M10.41329,2.03326 L63.99623,38.57469 C84.48802,45.8731 109.30796,53.81269 137.47682,61.93601 L48.64253,1.35463 C31.616,0.58266 18.5582,0.80431 10.41329,2.03326 Z" id="Shape" fill="#00FFA3"></path>
                <path d="M48.64253,1.35463 L137.47682,61.936 C163.53138,69.44968 192.44797,77.12005 223.45558,84.58507 L110.06519,6.56793 C86.305,3.86253 65.52322,2.12009 48.64253,1.35463 Z" id="Shape" fill="#FFDD00"></path>
                <path d="M0.76807,6.69433 C0.79939,12.68194 24.26094,24.42246 63.99623,38.57469 L10.41329,2.03326 C4.11836,2.9832 0.75679,4.53446 0.76807,6.69433 Z" id="Shape" fill="#FFDD00"></path>
                <path d="M110.06519,6.56793 L223.45558,84.58508 C243.35785,89.37649 264.12002,94.08327 285.53776,98.60951 C289.297833,99.4040767 293.044293,100.185743 296.77714,100.95451 L172.80051,14.97388 C150.277,11.55178 129.20426,8.74714 110.06519,6.56793 Z" id="Shape" fill="#00FFA3"></path>
                <path d="M172.80051,14.97388 L296.77714,100.95453 C320.24387,105.78853 343.13197,110.11183 365.08596,113.92571 L236.12208,25.58749 C214.08909,21.56211 192.86954,18.023 172.80051,14.97388 Z" id="Shape" fill="#FFDD00"></path>
                <path d="M298.37751,37.85219 C277.12005,33.35982 256.28163,29.27059 236.12209,25.58749 L365.086,113.92572 C387.10162,117.75037 408.17564,121.06199 427.94964,123.86088 L304.1941,39.09023 C302.2602,38.67613 300.321337,38.26345 298.37751,37.85219 Z" id="Shape" fill="#00FFA3"></path>
                <path d="M304.1941,39.09023 L427.94959,123.86087 C450.59092,127.06564 471.52598,129.59814 490.21433,131.45815 L381.73879,57.154 C357.25806,50.97635 331.2686,44.88709 304.1941,39.09023 Z" id="Shape" fill="#FFDD00"></path>
                <path d="M381.73879,57.154 L490.21434,131.45819 C511.25206,133.552 529.44086,134.79354 544.01118,135.1831 L462.589,79.40995 C438.29673,72.10043 411.10352,64.56413 381.73879,57.154 Z" id="Shape" fill="#00FFA3"></path>
                <path d="M462.589,79.40995 L544.01122,135.18306 C568.80941,135.84593 583.12669,134.04154 583.14722,129.76738 C583.18645,121.63215 536.21493,101.56415 462.589,79.40995 Z" id="Shape" fill="#FFDD00"></path>
            </g>
        </g>
    </g>
</svg>
