<svg width="748px" height="306px" viewBox="0 0 748 306" version="1.1" xmlns="http://www.w3.org/2000/svg" xmlns:xlink="http://www.w3.org/1999/xlink">
    <g id="-" stroke="none" stroke-width="1" fill="none" fill-rule="evenodd">
        <g id="1366х900-main-copy" transform="translate(-507.000000, -546.000000)">
            <g id="hv_planets_Artboard-55" transform="translate(507.000000, 546.000000)">
                <path d="M745.91254,91.25043 C745.92035,90.88178 745.92133,90.52729 745.91132,90.19867 C745.92255,90.54852 745.91083,90.90009 745.91254,91.25043 Z" id="Shape"></path>
                <path d="M715.68744,102.50116 C711.97844,102.05756 708.1098,101.22675 704.3039,100.42916 C708.0705,101.73138 711.84955,102.75995 715.68744,102.50116 Z" id="Shape"></path>
                <path d="M289.10615,186.28461 C289.03901,186.30756 288.977,186.34052 288.91035,186.36469 C298.46284,184.86493 306.96675,185.75922 315.15791,187.15522 C306.67963,184.37836 298.0998,183.1933 289.10615,186.28461 Z" id="Shape"></path>
                <path d="M741.0915,105.73334 C744.68208,99.03217 745.87666,90.30512 745.91132,90.19892 C745.86542,90.31293 743.4704,99.16351 741.0915,105.73334 Z" id="Shape"></path>
                <path d="M389.04365,249.90009 C392.96799,250.693897 396.932695,251.273127 400.92011,251.6352 C397.05195,251.009 393.07953,250.40643 389.04365,249.90009 Z" id="Shape"></path>
                <path d="M609.975,185.53558 C609.96475,185.53534 609.95522,185.53631 609.945,185.53607 C598.41351,185.21576 586.04827,182.49774 574.67132,185.54364 C586.9267,182.38812 598.47992,186.341 609.975,185.53558 Z" id="Shape"></path>
                <polygon id="Shape" points="2.25483 239.72772 2.23432 239.71918 2.26948 239.76093"></polygon>
                <path d="M515.27094,135.58344 C512.918531,135.801056 510.626696,136.452071 508.51117,137.50361 C509.061463,137.294137 509.636253,137.105823 510.23554,136.93867 C531.24042,131.11667 549.16205,148.19575 569.42841,147.85884 C551.8747,147.30121 533.71625,133.72479 515.27094,135.58344 Z" id="Shape"></path>
                <path d="M57.23432,164.21918 C67.18305,158.20356 75.94184,147.5744 83.23432,138.71918 C90.47114,129.93158 95.10761,119.94525 105.23432,115.71918 C120.69132,109.26874 132.0395,117.36249 158.20432,113.00189 C179.90085,109.38589 185.87449,82.0661 214.23432,71.05243 C243.31757,59.758 286.32026,69.79779 290.93696,69.01825 C311.61421,65.52655 314.05537,45.49625 334.48384,41.36566 C357.38008,36.73627 381.38008,53.38714 404.21162,47.28266 C419.14131,43.29072 432.05122,29.46845 447.7043,27.85859 C464.49409,26.13227 494.04024,40.404 521.2043,30.85859 C542.5693,23.35127 558.56758,10.05244 599.2343,30.71919 C631.8466,47.29268 651.37468,32.40767 673.7343,37.21919 C713.23381,45.71895 741.4003,79.71846 745.91106,90.19844 C731.23333,50.21844 612.02214,-34.72075 345.25945,15.37886 C78.496,65.47845 14.821,191.04315 14.821,191.04315 C24.52021,177.59857 41.71723,173.60175 57.23432,164.21918 Z" id="Shape" fill="#5A0BB5" fill-rule="nonzero"></path>
                <path d="M25.83759,202.23407 C42.73432,201.71918 50.3974,194.79071 57.73432,181.71918 C64.92158,168.91449 77.88276,166.73554 88.21232,168.93818 C102.11393,171.90205 106.59464,175.8603 116.53947,170.03974 C118.9257,168.64326 120.85319,166.24674 122.67619,163.32953 C124.227224,159.816425 126.103996,156.456365 128.2819,153.2934 C132.5214,145.7524 137.92082,137.97089 147.98429,134.59418 C166.98429,128.21918 186.23209,152.91596 203.82829,147.26018 C216.73329,143.11223 216.41691,118.00798 246.23429,107.71918 C270.46085,99.35956 293.98917,123.24726 313.61173,116.48334 C333.23429,109.71918 333.73429,89.21918 357.23429,81.21918 C387.00455,71.08466 413.23429,94.96918 431.85758,90.14154 C436.42228,88.95819 439.02579,85.36395 443.4921,79.52386 C445.845532,76.5036752 448.69999,73.9099341 451.9311,71.85565 C452.1501,71.7099 452.37788,71.57513 452.60029,71.43353 C452.80708,71.3056 453.00752,71.17303 453.21821,71.04803 C468.1396,61.9328 490.48261,61.86444 512.93521,71.93035 C516.42056,73.49309 519.34439,74.80364 521.82364,75.90276 C538.66864,81.43865 549.03409,66.48211 562.19473,60.36321 C563.838524,59.4186705 565.634349,58.7678207 567.50161,58.43987 C567.80215,58.38687 568.10171,58.34295 568.40127,58.29925 C568.53018,58.2741 568.65591,58.23968 568.78555,58.21697 C587.13247,54.98015 596.3854,65.25017 620.29727,68.01214 C643.73427,70.71914 644.54927,52.81048 657.94668,55.14178 C676.12734,58.3056 683.51187,76.02655 694.96328,78.28578 C702.12222,79.69838 702.34536,68.49061 716.94668,71.44008 C721.61611,72.38344 740.40078,83.38588 745.91128,90.19862 L745.91104,90.19838 C741.4003,79.71838 713.23379,45.71889 673.73428,37.21913 C651.37466,32.40761 631.84658,47.29262 599.23428,30.71913 C558.56753,10.05238 542.56928,23.35121 521.20428,30.85853 C494.04022,40.40394 464.49407,26.13221 447.70428,27.85853 C432.0512,29.46839 419.14128,43.29066 404.2116,47.2826 C381.38006,53.38709 357.38006,36.73621 334.48382,41.3656 C314.05536,45.49628 311.6142,65.52655 290.937,69.01825 C286.3203,69.79779 243.31762,59.758 214.23436,71.05243 C185.8745,82.0661 179.90086,109.38593 158.20436,113.00189 C132.03957,117.36249 120.69142,109.26874 105.23436,115.71918 C95.10765,119.94525 90.47118,129.93158 83.23436,138.71918 C75.94188,147.5744 67.18309,158.20356 57.23436,164.21918 C41.71727,173.60175 24.52025,177.59857 14.82103,191.04318 C3.15086,207.21918 1.85887,218.79538 1.85887,218.79538 C0.22777,225.99538 0.5786,234.59592 1.8203,238.48972 C1.93341294,238.890773 2.06996094,239.284844 2.22924,239.6699 C2.11713,238.62689 -1.50176,203.06757 25.83759,202.23407 Z" id="Shape" fill="#FF7208" fill-rule="nonzero"></path>
                <path d="M38.56147,235.46552 C48.50727,227.75068 59.71015,248.92206 72.78022,249.61689 C89.93403,250.52851 85.13935,221.96503 102.94822,225.60346 C121.16673,229.32563 136.1301,243.78583 156.10496,241.71284 C175.87913,239.66084 170.11302,199.22334 189.93357,209.10762 C227.3801,227.78194 252.47532,228.76118 259.25457,226.11128 C273.83001,220.41353 275.22576,191.34492 288.91033,186.3647 C288.97698,186.34053 289.03899,186.30757 289.10613,186.28462 C298.09978,183.19331 306.67962,184.37837 315.15789,187.15523 C332.48406,192.83003 349.38689,205.15352 368.5324,201.22164 C390.27874,196.75558 380.88567,166.72921 401.36468,161.2231 C429.85736,153.56221 449.15496,183.22872 477.45428,176.8586 C495.37396,172.82515 493.03851,145.26192 508.51116,137.5036 C510.626686,136.452061 512.918521,135.801046 515.27093,135.58343 C533.71624,133.72479 551.87469,147.3012 569.4284,147.85882 C574.335627,148.081718 579.21853,147.048281 583.61468,144.85638 C592.35268,140.46844 600.23431,119.34417 612.60931,114.59417 C629.87542,107.96673 641.53558,131.79705 659.90326,126.25262 C671.02972,122.89373 673.38837,104.0932 683.91449,99.61248 C689.19598,97.36394 696.61713,98.81853 704.30389,100.42913 C708.1098,101.22674 711.97845,102.05755 715.68743,102.50113 C718.91111,102.974154 722.189258,102.935265 725.40081,102.3859 C740.52825,99.31217 744.85931,93.84415 745.91131,90.19864 C740.40081,83.3859 721.61614,72.38345 716.94671,71.4401 C702.34539,68.49064 702.12225,79.6984 694.96331,78.2858 C683.51189,76.02652 676.12737,58.30558 657.94671,55.1418 C644.54925,52.8105 643.73431,70.71919 620.2973,68.01216 C596.38543,65.25016 587.13251,54.98016 568.78558,58.21699 C568.65594,58.2397 568.53021,58.27412 568.4013,58.29927 C568.10174,58.34297 567.80218,58.38692 567.50164,58.4399 C565.634379,58.7678507 563.838554,59.4187005 562.19476,60.36324 C549.03412,66.48214 538.66864,81.43868 521.82367,75.90279 C519.34442,74.80367 516.42059,73.49312 512.93524,71.93038 C490.4826,61.86446 468.13959,61.93282 453.21824,71.04806 C453.00755,71.17306 452.80711,71.30563 452.60032,71.43356 C452.37791,71.57516 452.15012,71.70993 451.93113,71.85568 C448.70002,73.9099641 445.845562,76.5037052 443.49213,79.52389 C439.02582,85.36398 436.42231,88.95822 431.85761,90.14157 C413.23432,94.96921 387.00461,71.08469 357.23432,81.21921 C333.73432,89.21921 333.23432,109.71921 313.61176,116.48337 C293.9892,123.24729 270.46088,99.35959 246.23432,107.71921 C216.41694,118.00803 216.73332,143.11228 203.82832,147.26021 C186.23213,152.91597 166.98432,128.21921 147.98432,134.59421 C137.92084,137.97092 132.52143,145.75241 128.28193,153.29343 C126.104026,156.456395 124.227254,159.816455 122.67622,163.32956 C120.85322,166.2468 118.92573,168.64328 116.5395,170.03977 C106.59468,175.86033 102.11396,171.90207 88.21235,168.93821 C77.88276,166.73557 64.92158,168.91453 57.73435,181.71921 C50.39744,194.79074 42.73435,201.71921 25.83762,202.2341 C-1.50174,203.0676 2.11716,238.62692 2.22922,239.66989 L2.23435,239.71921 L2.25486,239.72775 C5.21625,240.923 20.43867,249.52338 38.56147,235.46552 Z" id="Shape" fill="#5A0BB5" fill-rule="nonzero"></path>
                <path d="M2.20307,239.71918 C2.20307,239.71918 2.23969,239.78998 2.30439,239.91181 C2.29218,239.8769 2.27802,239.84081 2.26582,239.80581 C2.24506,239.77631 2.22382,239.749 2.20307,239.71918 Z" id="Shape" fill="#5A0BB5" fill-rule="nonzero"></path>
                <path d="M573.93012,233.84369 C580.25165,230.95014 586.75776,227.8703 593.36542,224.63324 C580.26605,230.80463 567.25629,236.70209 555.86029,241.68624 C561.68036,239.29071 567.7287,236.68231 573.93012,233.84369 Z" id="Shape" fill="#5A0BB5" fill-rule="nonzero"></path>
                <path d="M745.916243,90.19867 C745.87665,90.30511 744.68207,99.03216 741.0915,105.73333 C739.32417,109.03143 736.97944,111.84148 733.90083,112.88592 C724.42524,116.10076 710.83052,108.30047 698.21431,126.47186 C677.73431,155.96917 657.73431,142.55243 643.9438,150.56341 C630.15329,158.57439 636.56758,173.38592 625.4008,180.55241 C620.777539,183.522064 615.461876,185.239238 609.97502,185.53556 C598.4799,186.34098 586.92668,182.3881 574.67131,185.54362 C555.77971,190.40762 553.88298,208.18156 536.20431,214.35856 C532.00531,215.82585 518.88644,219.20056 508.70431,218.10856 C496.78219,216.83024 474.73431,214.96916 458.21969,223.18913 C441.70504,231.40934 439.23434,244.46913 424.23434,249.21913 C416.701728,251.570742 408.774886,252.392183 400.92013,251.63513 C396.932715,251.273057 392.96801,250.693827 389.04367,249.90002 C375.08078,247.18957 361.91208,243.08508 347.55075,246.94055 C332.23434,251.05237 325.13132,271.17883 313.23434,273.71911 C288.23483,279.057 263.10153,264.22228 246.90084,267.05236 C232.32809,269.59826 219.17257,281.18859 199.90084,282.05236 C180.62936,282.91613 171.59005,269.73962 148.48434,269.71911 C139.95675,269.71154 123.74459,272.43054 104.24484,273.27062 C82.23434,274.21911 86.03879,261.17931 64.73434,263.46911 C49.24506,265.134 35.29,265.08881 22.75727,258.61786 C35.49409,267.97528 49.72871,275.27216 59.90082,277.38593 C85.56757,282.71918 89.13959,278.88642 105.90082,281.38593 C120.15082,283.51093 131.73432,295.21918 160.23432,297.21918 C179.31049,298.5578 184.23432,293.05243 204.23432,290.71918 C233.53632,287.30048 237.24332,299.48383 268.73432,298.21918 C280.32783,297.7536 291.73432,287.21918 316.73432,284.71918 C341.73432,282.21918 349.50776,293.17718 373.23432,285.71918 C398.07221,277.91181 418.51362,263.31806 429.73432,261.71918 C433.141231,261.229612 436.584528,261.039921 440.0246,261.15229 C457.30707,260.02363 469.62934,262.12763 477.98432,259.71918 C487.23432,257.05243 490.23432,252.21918 495.90082,247.38593 C525.06073,222.51435 560.68061,235.758 584.90082,224.38593 C594.6015,219.83124 603.98139,202.6247 615.23432,195.21918 C626.48701,187.81366 645.5395,188.94013 660.73432,180.96918 C675.98432,172.96918 689.95551,165.87445 708.64643,150.3349 C738.72065,125.33099 745.70258,101.16669 745.91254,91.25043 C745.91083,90.90009 745.92254,90.54853 745.916243,90.19867 Z" id="Shape" fill="#5A0BB5" fill-rule="nonzero"></path>
                <path d="M745.91132,90.19867 C745.92132,90.52728 745.89614,90.88206 745.91254,91.25043 C746.38503,101.86363 738.72065,125.331 708.64643,150.3349 C689.95551,165.87445 675.98432,172.96918 660.73432,180.96918 C645.5395,188.94013 626.48701,187.81366 615.23432,195.21918 C603.98139,202.6247 594.60151,219.83124 584.90082,224.38593 C560.68061,235.758 525.06073,222.51435 495.90082,247.38593 C490.23432,252.21918 487.23432,257.05243 477.98432,259.71918 C469.62932,262.12763 457.30707,260.02362 440.0246,261.15229 C436.584528,261.039921 433.141231,261.229612 429.73432,261.71918 C418.51362,263.31806 398.07221,277.91181 373.23432,285.71918 C349.50776,293.17718 341.73432,282.21918 316.73432,284.71918 C291.73432,287.21918 280.32783,297.7536 268.73432,298.21918 C237.24332,299.48383 233.53632,287.30048 204.23432,290.71918 C184.23432,293.05243 179.31049,298.5578 160.23432,297.21918 C131.73432,295.21918 120.15082,283.51093 105.90082,281.38593 C89.13959,278.88642 85.56757,282.71918 59.90082,277.38593 C49.7287,275.27216 35.49408,267.97529 22.75727,258.61786 C35.28998,265.08881 49.24506,265.13397 64.73432,263.46918 C86.03876,261.17939 82.23432,274.21918 104.24482,273.27069 C123.74458,272.4306 139.95673,269.71161 148.48432,269.71918 C171.59003,269.73969 180.62932,282.91618 199.90082,282.05243 C219.17255,281.18866 232.32807,269.59833 246.90082,267.05243 C263.1015,264.22235 288.23482,279.05707 313.23432,273.71918 C325.13132,271.1789 332.23432,251.05243 347.55073,246.94062 C361.91206,243.08515 375.08073,247.18962 389.04365,249.90009 C393.07954,250.40644 397.05195,251.00898 400.92011,251.6352 C408.774866,252.392253 416.701708,251.570812 424.23432,249.2192 C439.23432,244.4692 441.70502,231.40939 458.21967,223.1892 C474.73432,214.9692 496.78217,216.83031 508.70429,218.10863 C518.88642,219.20063 532.00529,215.82592 536.20429,214.35863 C553.883,208.18163 555.77973,190.4077 574.67129,185.54369 C586.04829,182.49779 599.15583,186.44701 611.32249,185.53034 C616.45701,185.17072 620.23232,183.86986 625.40078,180.55248 C636.56753,173.38598 630.15322,158.57448 643.94378,150.56348 C657.73434,142.55248 677.73431,155.96924 698.21429,126.47193 C710.8305,108.30054 724.42523,116.10084 733.90081,112.88599 C736.97942,111.84156 739.32415,109.0315 741.09148,105.7334 C745.11419,99.32202 745.86541,90.31299 745.9113,90.19898 L745.9113,90.19874 C744.8593,93.84425 740.52824,99.31227 725.4008,102.386 C722.42351,102.991 708.07048,101.73146 704.30388,100.42921 C696.61711,98.81861 689.19597,97.36402 683.91448,99.61256 C673.38836,104.09327 671.02971,122.89381 659.90325,126.2527 C641.53557,131.79713 629.87542,107.96681 612.6093,114.59425 C600.2343,119.34425 592.35271,140.46852 583.61467,144.85646 C579.21852,147.048361 574.335617,148.081798 569.42839,147.8589 C550.07251,147.44703 531.82739,130.45835 510.82251,136.28037 C510.22217,136.44687 509.06144,137.2942 508.51115,137.50368 C493.03849,145.26198 495.37394,172.82521 477.45427,176.85868 C449.15495,183.2288 429.85735,153.56229 401.36467,161.22318 C380.88567,166.72928 390.27873,196.75565 368.53239,201.22172 C349.38688,205.1536 332.48405,192.83012 315.15788,187.15531 C310.699464,185.628008 306.050486,184.727488 301.34425,184.47957 C297.120497,184.363907 292.909958,185.002305 288.91032,186.36479 C275.22575,191.34501 273.83,220.41362 259.25456,226.11137 C252.47526,228.76127 227.38005,227.78202 189.93356,209.10771 C170.113,199.22343 175.87912,239.66093 156.10495,241.71293 C136.1301,243.78593 121.16672,229.32572 102.94821,225.60356 C85.13937,221.96513 89.93405,250.52856 72.78021,249.61699 C59.71014,248.92217 48.50726,227.75078 38.56146,235.46562 C20.43866,249.52348 5.21625,240.92314 2.25482,239.72783 L2.26947,239.76103 L2.23431,239.71928 C2.24408,239.74784 2.25579,239.77763 2.2658,239.80595 C2.27801,239.84086 2.29217,239.87695 2.30437,239.91195 C9.6728,260.861 50.518,304.33075 186.23432,305.38593 C350.95063,306.66645 459.99213,273.82221 468.36225,271.22138 L468.40082,271.21918 C490.65082,265.30243 512.47699,258.94281 525.90082,254.05243 C532.46063,251.66278 543.15741,247.24213 555.86029,241.68622 C567.25629,236.70209 580.26605,230.80463 593.36542,224.63322 C616.58124,213.69596 640.06586,201.90544 655.28949,192.84269 C668.12494,185.20158 668.48383,184.84708 689.53705,170.07926 C700.28021,162.09049 700.89105,161.5441 716.53998,147.54557 C725.38298,138.91276 726.15692,137.92545 735.63031,125.83707 C737.73016,122.67007 740.32513,118.31217 742.18646,114.99942 C745.107065,109.443154 746.779149,103.316145 747.08587,97.04654 C747.047455,94.7172262 746.651315,92.4076484 745.91132,90.19867 Z" id="Shape" fill="#FF7208" fill-rule="nonzero"></path>
            </g>
        </g>
    </g>
</svg>
